<svg width="50" height="50" viewBox="0 0 50 50" fill="none" xmlns="http://www.w3.org/2000/svg">
<g clip-path="url(#clip0_77_90)">
<path d="M35.151 17.3203C34.9341 16.7584 34.6019 16.2482 34.1758 15.8226C33.7497 15.3969 33.2391 15.0653 32.677 14.8489C31.9031 14.5623 31.0856 14.4108 30.2604 14.401C28.888 14.3385 28.4765 14.3229 25 14.3229C21.5234 14.3229 21.1119 14.3385 19.7395 14.401C18.9134 14.4105 18.095 14.562 17.3203 14.8489C16.7584 15.0659 16.2482 15.3981 15.8226 15.8242C15.3969 16.2503 15.0653 16.7608 14.8489 17.3229C14.5623 18.0968 14.4108 18.9143 14.401 19.7395C14.3385 21.1119 14.3229 21.5234 14.3229 25C14.3229 28.4765 14.3385 28.888 14.401 30.2604C14.4105 31.0865 14.562 31.9049 14.8489 32.6796C15.0659 33.2415 15.3981 33.7517 15.8242 34.1773C16.2503 34.603 16.7608 34.9347 17.3229 35.151C18.0968 35.4377 18.9143 35.5892 19.7395 35.5989C21.1119 35.6614 21.5234 35.677 25 35.677C28.4765 35.677 28.888 35.6614 30.2604 35.5989C31.0865 35.5895 31.9049 35.4379 32.6796 35.151C33.2415 34.9341 33.7517 34.6019 34.1773 34.1758C34.603 33.7497 34.9347 33.2391 35.151 32.677C35.4377 31.9031 35.5892 31.0856 35.5989 30.2604C35.6614 28.888 35.677 28.4765 35.677 25C35.677 21.5234 35.6614 21.1119 35.5989 19.7395C35.5895 18.9134 35.4379 18.095 35.151 17.3203ZM25 31.6875C23.6773 31.6875 22.3843 31.2952 21.2846 30.5604C20.1848 29.8256 19.3277 28.7811 18.8215 27.5592C18.3154 26.3372 18.1829 24.9925 18.441 23.6953C18.699 22.398 19.3359 21.2064 20.2712 20.2712C21.2064 19.3359 22.398 18.699 23.6953 18.441C24.9925 18.1829 26.3372 18.3154 27.5592 18.8215C28.7811 19.3277 29.8256 20.1848 30.5604 21.2846C31.2952 22.3843 31.6875 23.6773 31.6875 25C31.6875 26.7736 30.9829 28.4746 29.7287 29.7287C28.4746 30.9829 26.7736 31.6875 25 31.6875ZM31.9505 19.6119C31.6414 19.6119 31.3394 19.5203 31.0824 19.3486C30.8254 19.1769 30.6252 18.9329 30.5069 18.6474C30.3887 18.3619 30.3577 18.0477 30.418 17.7446C30.4783 17.4415 30.6271 17.1631 30.8456 16.9446C31.0641 16.7261 31.3426 16.5773 31.6457 16.517C31.9487 16.4567 32.2629 16.4876 32.5484 16.6059C32.8339 16.7241 33.078 16.9244 33.2497 17.1814C33.4213 17.4383 33.513 17.7404 33.513 18.0494C33.513 18.4638 33.3484 18.8613 33.0553 19.1543C32.7623 19.4473 32.3649 19.6119 31.9505 19.6119Z" fill="#E71D36"/>
<path d="M25 29.3411C27.3975 29.3411 29.3411 27.3975 29.3411 25C29.3411 22.6024 27.3975 20.6588 25 20.6588C22.6024 20.6588 20.6588 22.6024 20.6588 25C20.6588 27.3975 22.6024 29.3411 25 29.3411Z" fill="#E71D36"/>
<path d="M25 0C20.0555 0 15.222 1.46622 11.1108 4.21326C6.99953 6.9603 3.79521 10.8648 1.90302 15.4329C0.0108321 20.0011 -0.484251 25.0277 0.480379 29.8773C1.44501 34.7268 3.82603 39.1814 7.32234 42.6777C10.8187 46.174 15.2732 48.555 20.1228 49.5196C24.9723 50.4843 29.9989 49.9892 34.5671 48.097C39.1353 46.2048 43.0397 43.0005 45.7868 38.8893C48.5338 34.778 50 29.9445 50 25C50 18.3696 47.3661 12.0107 42.6777 7.32233C37.9893 2.63392 31.6304 0 25 0ZM37.9427 30.3698C37.9204 31.4495 37.7152 32.5175 37.3359 33.5286C37.0015 34.3934 36.4901 35.1788 35.8345 35.8344C35.1788 36.4901 34.3934 37.0015 33.5287 37.3359C32.5176 37.7152 31.4495 37.9204 30.3698 37.9427C28.9792 38.0052 28.5365 38.0208 25 38.0208C21.4636 38.0208 21.0208 38.0052 19.6302 37.9427C18.5506 37.9204 17.4825 37.7152 16.4714 37.3359C15.6066 37.0015 14.8212 36.4901 14.1656 35.8344C13.5099 35.1788 12.9985 34.3934 12.6641 33.5286C12.2848 32.5175 12.0796 31.4495 12.0573 30.3698C11.9948 28.9792 11.9792 28.5365 11.9792 25C11.9792 21.4635 11.9948 21.0208 12.0573 19.6302C12.0796 18.5505 12.2848 17.4825 12.6641 16.4714C12.9985 15.6066 13.5099 14.8212 14.1656 14.1656C14.8212 13.5099 15.6066 12.9985 16.4714 12.6641C17.4825 12.2848 18.5506 12.0796 19.6302 12.0573C21.0208 11.9948 21.4636 11.9792 25 11.9792C28.5365 11.9792 28.9792 11.9948 30.3698 12.0573C31.4495 12.0796 32.5176 12.2848 33.5287 12.6641C34.3934 12.9985 35.1788 13.5099 35.8345 14.1656C36.4901 14.8212 37.0015 15.6066 37.3359 16.4714C37.7152 17.4825 37.9204 18.5505 37.9427 19.6302C38.0052 21.0208 38.0208 21.4635 38.0208 25C38.0208 28.5365 38.0052 28.9792 37.9427 30.3698Z" fill="#E71D36"/>
</g>
<defs>
<clipPath id="clip0_77_90">
<rect width="50" height="50" fill="white"/>
</clipPath>
</defs>
</svg>
