<svg width="50" height="50" viewBox="0 0 50 50" fill="none" xmlns="http://www.w3.org/2000/svg">
<path d="M25 0C11.2145 0 0 11.2148 0 24.9996C0 38.7848 11.2145 50 25 50C38.7846 50 50 38.7848 50 24.9996C50 11.2148 38.7846 0 25 0ZM32.0657 15.7817C32.0657 15.9001 32.0187 16.0136 31.935 16.0973C31.8513 16.181 31.7377 16.2281 31.6194 16.2281L28.7774 16.2298C26.9023 16.2298 26.5595 16.9601 26.5595 18.3982V21.3815H31.4337C31.5618 21.3815 31.6841 21.4369 31.7684 21.5333C31.8528 21.6297 31.8921 21.7578 31.8764 21.885L31.1824 27.2558C31.1685 27.3634 31.1159 27.4623 31.0344 27.5339C30.9529 27.6055 30.8481 27.645 30.7396 27.645H26.5595V40.9812C26.5595 41.0996 26.5125 41.2131 26.4288 41.2968C26.3451 41.3806 26.2316 41.4276 26.1132 41.4276H20.5678C20.4494 41.4276 20.3358 41.3806 20.2521 41.2968C20.1684 41.2131 20.1214 41.0996 20.1214 40.9812V27.645H15.928C15.8096 27.645 15.696 27.598 15.6123 27.5143C15.5286 27.4306 15.4816 27.3171 15.4816 27.1987V21.8279C15.4816 21.7095 15.5286 21.596 15.6123 21.5122C15.696 21.4285 15.8096 21.3815 15.928 21.3815H20.1214V17.8666C20.1214 13.2112 22.9388 10.3198 27.475 10.3198C29.4251 10.3198 31.1485 10.4649 31.6778 10.535C31.7851 10.5492 31.8836 10.6018 31.955 10.6832C32.0263 10.7646 32.0657 10.8691 32.0657 10.9773V15.7817Z" fill="#222222"/>
</svg>
