<svg width="50" height="50" viewBox="0 0 50 50" fill="none" xmlns="http://www.w3.org/2000/svg">
<g clip-path="url(#clip0_26_9)">
<path d="M35.1511 17.3201C34.9341 16.7583 34.6019 16.2481 34.1758 15.8225C33.7497 15.3968 33.2392 15.0651 32.6771 14.8488C31.9032 14.5621 31.0857 14.4106 30.2604 14.4009C28.888 14.3384 28.4766 14.3228 25 14.3228C21.5235 14.3228 21.112 14.3384 19.7396 14.4009C18.9135 14.4103 18.0951 14.5619 17.3203 14.8488C16.7585 15.0657 16.2483 15.3979 15.8226 15.824C15.397 16.2501 15.0653 16.7607 14.849 17.3228C14.5623 18.0967 14.4108 18.9142 14.4011 19.7394C14.3386 21.1118 14.3229 21.5233 14.3229 24.9998C14.3229 28.4764 14.3386 28.8879 14.4011 30.2603C14.4105 31.0864 14.562 31.9048 14.849 32.6795C15.0659 33.2414 15.3981 33.7516 15.8242 34.1772C16.2503 34.6029 16.7609 34.9345 17.3229 35.1509C18.0969 35.4375 18.9143 35.589 19.7396 35.5988C21.112 35.6613 21.5235 35.6769 25 35.6769C28.4766 35.6769 28.888 35.6613 30.2604 35.5988C31.0866 35.5893 31.9049 35.4378 32.6797 35.1509C33.2416 34.9339 33.7517 34.6017 34.1774 34.1756C34.603 33.7495 34.9347 33.239 35.1511 32.6769C35.4377 31.903 35.5892 31.0855 35.599 30.2603C35.6615 28.8879 35.6771 28.4764 35.6771 24.9998C35.6771 21.5233 35.6615 21.1118 35.599 19.7394C35.5895 18.9133 35.438 18.0949 35.1511 17.3201ZM25 31.6873C23.6774 31.6873 22.3844 31.2951 21.2846 30.5603C20.1849 29.8255 19.3277 28.781 18.8216 27.559C18.3154 26.3371 18.183 24.9924 18.441 23.6952C18.6991 22.3979 19.336 21.2063 20.2712 20.2711C21.2065 19.3358 22.3981 18.6989 23.6954 18.4408C24.9926 18.1828 26.3372 18.3152 27.5592 18.8214C28.7812 19.3276 29.8256 20.1847 30.5605 21.2845C31.2953 22.3842 31.6875 23.6772 31.6875 24.9998C31.6875 26.7735 30.9829 28.4745 29.7288 29.7286C28.4746 30.9828 26.7737 31.6873 25 31.6873ZM31.9505 19.6118C31.6415 19.6118 31.3394 19.5202 31.0825 19.3485C30.8255 19.1768 30.6252 18.9328 30.507 18.6473C30.3887 18.3618 30.3578 18.0476 30.4181 17.7445C30.4784 17.4414 30.6272 17.163 30.8457 16.9445C31.0642 16.7259 31.3426 16.5771 31.6457 16.5168C31.9488 16.4566 32.263 16.4875 32.5485 16.6058C32.834 16.724 33.078 16.9243 33.2497 17.1812C33.4214 17.4382 33.513 17.7403 33.513 18.0493C33.513 18.4637 33.3484 18.8611 33.0554 19.1542C32.7624 19.4472 32.3649 19.6118 31.9505 19.6118Z" fill="#222222"/>
<path d="M25 29.341C27.3976 29.341 29.3412 27.3974 29.3412 24.9998C29.3412 22.6023 27.3976 20.6587 25 20.6587C22.6025 20.6587 20.6589 22.6023 20.6589 24.9998C20.6589 27.3974 22.6025 29.341 25 29.341Z" fill="#222222"/>
<path d="M25 0C20.0555 0 15.222 1.46622 11.1108 4.21326C6.99953 6.9603 3.79521 10.8648 1.90302 15.4329C0.0108321 20.0011 -0.484251 25.0277 0.480379 29.8773C1.44501 34.7268 3.82603 39.1814 7.32234 42.6777C10.8187 46.174 15.2732 48.555 20.1228 49.5196C24.9723 50.4843 29.9989 49.9892 34.5671 48.097C39.1353 46.2048 43.0397 43.0005 45.7868 38.8893C48.5338 34.778 50 29.9445 50 25C50 18.3696 47.3661 12.0107 42.6777 7.32233C37.9893 2.63392 31.6304 0 25 0ZM37.9427 30.3698C37.9204 31.4495 37.7152 32.5175 37.3359 33.5286C37.0015 34.3934 36.4901 35.1788 35.8345 35.8344C35.1788 36.4901 34.3934 37.0015 33.5287 37.3359C32.5176 37.7152 31.4495 37.9204 30.3698 37.9427C28.9792 38.0052 28.5365 38.0208 25 38.0208C21.4636 38.0208 21.0208 38.0052 19.6302 37.9427C18.5506 37.9204 17.4825 37.7152 16.4714 37.3359C15.6066 37.0015 14.8212 36.4901 14.1656 35.8344C13.5099 35.1788 12.9985 34.3934 12.6641 33.5286C12.2848 32.5175 12.0796 31.4495 12.0573 30.3698C11.9948 28.9792 11.9792 28.5365 11.9792 25C11.9792 21.4635 11.9948 21.0208 12.0573 19.6302C12.0796 18.5505 12.2848 17.4825 12.6641 16.4714C12.9985 15.6066 13.5099 14.8212 14.1656 14.1656C14.8212 13.5099 15.6066 12.9985 16.4714 12.6641C17.4825 12.2848 18.5506 12.0796 19.6302 12.0573C21.0208 11.9948 21.4636 11.9792 25 11.9792C28.5365 11.9792 28.9792 11.9948 30.3698 12.0573C31.4495 12.0796 32.5176 12.2848 33.5287 12.6641C34.3934 12.9985 35.1788 13.5099 35.8345 14.1656C36.4901 14.8212 37.0015 15.6066 37.3359 16.4714C37.7152 17.4825 37.9204 18.5505 37.9427 19.6302C38.0052 21.0208 38.0208 21.4635 38.0208 25C38.0208 28.5365 38.0052 28.9792 37.9427 30.3698Z" fill="#222222"/>
</g>
<defs>
<clipPath id="clip0_26_9">
<rect width="50" height="50" fill="white"/>
</clipPath>
</defs>
</svg>
