<svg width="626" height="206" viewBox="0 0 626 206" fill="none" xmlns="http://www.w3.org/2000/svg">
<path d="M107.469 11.6041H109.44C130.816 13.4863 88.6235 79.8601 71.1807 84.7133C70.3374 84.9855 71.4645 86.0666 73.7189 86.0666C76.5328 86.0666 81.3091 84.9855 87.7802 80.1245C105.499 67.7193 126.039 37.7679 124.628 16.1851C123.785 3.23547 115.351 0 103.812 0C70.0616 0 30.3997 38.849 11.2702 79.8601C-5.60501 117.091 -5.04547 155.94 23.3609 165.654C26.7425 166.463 30.1159 167.272 34.0569 167.272C58.2466 167.272 85.8096 144.072 101.282 126.805C102.125 125.997 104.655 123.298 102.969 122.489C102.409 122.217 101.566 121.945 100.998 121.945C99.3114 121.945 97.6247 123.562 96.2218 124.643C82.7201 138.674 61.0605 156.749 40.8038 156.749C32.9298 156.749 26.4586 153.778 22.5176 148.388C-7.016 108.995 68.9345 11.6041 107.469 11.6041Z" fill="white"/>
<path d="M148.539 93.8909L148.255 93.6187C147.128 86.3311 143.755 74.1903 134.194 74.1903C132.507 74.1903 130.253 74.7347 127.723 76.3525C113.937 83.9045 89.464 125.997 95.0918 146.771C96.7785 153.514 101.847 156.477 106.347 156.477C108.877 156.477 111.124 155.668 112.818 153.778C119.281 147.035 129.41 133.277 137.851 120.327C126.036 149.734 105.22 196.951 81.59 196.951C70.9021 196.951 68.3721 186.965 68.3721 178.06C68.3721 176.714 68.6478 174.015 66.4015 173.743C64.431 173.479 64.7148 176.442 64.7148 177.795C64.9905 191.009 69.7749 205.849 86.3744 205.849C88.6206 205.849 91.4345 205.312 94.2484 204.776L94.5322 204.503C126.88 195.87 150.226 128.151 160.638 105.759C163.168 100.634 165.414 94.9642 167.945 89.5743C170.483 83.9045 163.728 82.2868 158.943 82.2868C157.54 82.2868 155.854 82.559 155.57 82.8234C153.04 84.9856 151.353 88.221 149.383 92.0009L148.539 93.8909ZM144.039 100.634L143.755 100.898C132.224 118.981 111.124 148.925 106.907 148.925C97.3461 148.925 126.32 85.2578 138.979 85.2578H139.538C141.509 85.5222 142.068 88.221 142.628 92.0009C142.912 92.8098 143.755 98.7441 144.039 100.634Z" fill="white"/>
<path d="M244.179 31.8336C238.267 31.8336 236.305 34.5324 233.767 39.1212C225.893 53.1519 214.362 74.7347 205.077 96.3174C204.233 89.5743 199.733 83.0956 192.418 83.0956C173.856 83.0956 153.316 126.533 155.286 148.388C155.57 153.778 159.511 159.72 165.131 159.72C165.974 159.72 167.101 159.72 167.945 159.448C175.259 156.477 190.172 132.74 196.359 122.217C192.702 132.468 191.291 141.637 192.986 149.734C194.389 154.323 197.486 157.286 200.016 158.367C200.86 158.639 201.419 158.911 202.263 158.911C213.802 158.911 237.148 124.916 244.738 114.393C245.022 114.12 245.306 113.311 245.306 113.039C248.396 109.267 250.65 105.759 251.769 103.869C251.21 101.715 250.082 100.634 248.679 100.634C248.396 100.634 248.112 100.634 247.836 100.898C244.738 106.032 213.234 147.844 207.331 147.844C198.046 147.844 242.492 53.1519 255.151 40.7389C257.681 38.3123 251.769 31.8336 244.179 31.8336ZM196.643 95.773C200.86 95.773 201.703 103.333 201.703 105.759C200.86 108.186 200.576 108.995 199.449 111.421C190.172 125.997 174.416 148.653 170.199 148.653C169.072 148.653 168.788 147.579 169.072 145.145C170.759 132.74 188.201 95.773 196.643 95.773Z" fill="white"/>
<path d="M283.273 135.703C282.713 134.085 282.997 131.386 284.4 127.07C285.527 120.599 289.184 108.723 294.812 104.406C297.058 103.061 296.782 102.788 295.088 100.898C292.282 97.6629 289.184 96.3174 286.37 96.3174C285.243 96.3174 284.124 96.5818 282.713 97.1262C284.967 89.302 286.37 80.6689 280.183 74.1902C278.496 72.5724 275.966 70.9547 273.152 70.9547C270.055 70.9547 266.681 72.5724 262.74 75.8079C245.865 89.0298 214.361 143.263 236.58 152.969C238.267 153.778 239.394 154.322 241.081 154.322C241.648 154.322 242.208 154.05 242.767 154.05C250.366 150.815 260.494 134.894 268.927 121.68C268.927 122.217 268.927 122.489 268.652 123.298C267.525 130.578 266.681 139.483 272.309 144.608C273.996 146.226 275.966 147.307 278.496 147.307C293.685 147.307 316.472 111.694 322.091 103.869C321.248 100.898 320.404 100.898 318.158 100.898C316.747 102.788 292.282 136.512 284.967 136.512C284.4 136.512 283.84 136.247 283.273 135.703ZM271.741 89.8386C273.996 87.9487 275.682 86.6032 277.085 86.6032C279.34 86.6032 279.899 90.9197 278.772 99.825C276.242 101.715 274.839 104.406 273.428 107.105C263.024 120.863 249.806 142.182 245.581 142.182C241.648 138.946 260.77 101.171 271.741 89.8386Z" fill="white"/>
<path d="M373.572 81.4778C370.759 78.779 367.101 77.6979 363.444 77.6979C359.503 79.0512 317.311 132.74 312.81 139.211C315.624 134.085 318.722 130.041 320.968 125.18C328.842 110.613 328.842 112.23 336.724 97.6629C338.411 94.9641 339.538 93.6186 337.284 91.192L336.724 90.6475C334.186 88.2209 330.529 86.8754 327.156 86.8754C322.939 86.8754 320.968 87.6843 319.282 91.4564C308.594 111.966 305.22 115.474 297.338 137.056C294.524 145.417 295.935 150.543 304.093 154.322C305.496 154.859 306.907 155.668 307.75 155.668C309.437 155.668 310.28 154.587 311.408 152.705C324.342 133.813 338.971 116.01 353.883 98.4718C347.972 108.458 329.686 147.307 349.099 151.351C349.942 151.624 350.502 151.624 351.345 151.624C367.385 151.624 390.731 121.408 399.165 109.804C400.576 107.377 402.263 105.487 403.106 104.142C402.547 102.252 401.136 101.171 400.292 101.171C400.016 101.171 399.733 101.443 399.733 101.443C399.165 102.252 395.516 106.568 391.291 112.23L390.731 113.039L390.448 113.311C382.857 122.217 369.915 140.292 358.944 141.909C346.569 143.263 371.602 97.3985 374.7 90.6475L374.975 89.8387C376.386 86.6032 376.386 83.6322 373.572 81.4778Z" fill="white"/>
<path d="M433.489 98.744V98.4718C434.332 96.8541 434.608 95.2363 434.891 93.6186C436.862 84.7133 430.391 77.1613 421.39 77.1613C418.292 77.1613 415.202 77.9701 411.829 80.1245C394.386 91.4564 367.666 132.468 383.974 151.624C387.072 155.668 391.572 157.286 396.916 157.286C417.173 157.286 436.302 131.386 446.423 117.628C450.08 112.503 453.178 108.458 454.864 106.296C454.864 104.142 453.178 103.333 452.05 103.333C451.767 103.333 451.491 103.333 451.491 103.597C440.235 118.437 417.173 148.388 396.357 148.388C377.787 146.226 414.919 88.221 426.45 88.221C427.017 88.221 427.861 88.4932 428.145 89.0298C430.391 92.8097 423.36 104.678 420.262 107.649C419.143 108.995 415.486 112.23 418.292 113.311C418.576 113.584 419.143 113.584 419.419 113.584C424.763 113.584 431.518 102.524 433.489 98.744Z" fill="white"/>
<path d="M452.052 157.286C472.025 157.286 491.43 131.387 501.842 117.628C505.499 112.503 508.305 108.458 510 106.296C510 104.142 508.305 103.333 507.186 103.333C506.902 103.333 506.618 103.333 506.618 103.597C495.371 118.437 472.025 148.388 451.484 148.388C443.326 147.579 445.021 137.865 449.798 126.806C451.484 128.96 454.582 130.041 457.955 130.041C467.524 129.769 479.055 116.01 482.713 107.649V107.105C483.556 105.759 483.84 104.142 484.399 102.252C486.086 93.6187 479.615 86.0667 470.898 86.0667C467.8 86.0667 464.427 86.8755 461.053 89.0299C443.61 100.09 422.51 132.468 439.11 151.624C442.207 155.668 446.708 157.286 452.052 157.286ZM475.114 96.8541C476.242 96.8541 477.085 97.1264 477.644 97.9352C478.212 99.2807 477.928 100.898 477.369 103.061C473.144 112.775 460.485 123.835 454.866 123.835C453.455 123.835 452.611 123.298 452.052 121.945C459.083 109.267 469.77 96.8541 475.114 96.8541Z" fill="white"/>
<path d="M273.689 185.098C275.246 185.098 276.575 184.569 277.678 183.511C278.797 182.454 279.365 181.17 279.365 179.654H276.511C276.511 180.424 276.227 181.077 275.667 181.614C275.124 182.135 274.467 182.391 273.689 182.391H263.763C262.984 182.391 262.311 182.135 261.752 181.614C261.209 181.077 260.941 180.424 260.941 179.654V173.432C260.941 172.685 261.209 172.047 261.752 171.503C262.311 170.966 262.984 170.694 263.763 170.694H273.689C274.467 170.694 275.124 170.966 275.667 171.503C276.227 172.047 276.511 172.685 276.511 173.432H279.365C279.365 171.938 278.797 170.663 277.678 169.605C276.575 168.532 275.246 167.987 273.689 167.987H263.763C262.206 167.987 260.86 168.532 259.741 169.605C258.638 170.663 258.087 171.938 258.087 173.432V179.654C258.087 181.17 258.638 182.454 259.741 183.511C260.86 184.569 262.206 185.098 263.763 185.098H273.689Z" fill="#222222"/>
<path d="M305.297 185.098C306.854 185.098 308.184 184.569 309.286 183.511C310.405 182.454 310.973 181.17 310.973 179.654V173.432C310.973 171.938 310.405 170.663 309.286 169.605C308.184 168.532 306.854 167.987 305.297 167.987H295.371C293.814 167.987 292.468 168.532 291.349 169.605C290.246 170.663 289.695 171.938 289.695 173.432V179.654C289.695 181.17 290.246 182.454 291.349 183.511C292.468 184.569 293.814 185.098 295.371 185.098H305.297ZM305.297 182.391H295.371C294.593 182.391 293.92 182.135 293.36 181.614C292.817 181.077 292.549 180.424 292.549 179.654V173.432C292.549 172.685 292.817 172.047 293.36 171.503C293.92 170.966 294.593 170.694 295.371 170.694H305.297C306.075 170.694 306.732 170.966 307.275 171.503C307.835 172.047 308.119 172.685 308.119 173.432V179.654C308.119 180.424 307.835 181.077 307.275 181.614C306.732 182.135 306.075 182.391 305.297 182.391Z" fill="#222222"/>
<path d="M346.474 185.098H343.652V173.556L334.926 185.098H333.467L324.774 173.556V185.098H321.952V167.987H324.092L334.213 181.427L344.333 167.987H346.474V185.098Z" fill="#222222"/>
<path d="M360.904 185.098H358.082V167.987H375.079C376.247 167.987 377.236 168.392 378.063 169.201C378.907 169.994 379.328 170.943 379.328 172.063V174.832C379.328 175.975 378.907 176.939 378.063 177.725C377.236 178.518 376.247 178.907 375.079 178.907H360.904V185.098ZM375.079 176.2C375.468 176.2 375.793 176.068 376.052 175.796C376.328 175.532 376.474 175.205 376.474 174.832V172.063C376.474 171.689 376.328 171.371 376.052 171.098C375.793 170.834 375.468 170.694 375.079 170.694H360.904V176.2H375.079Z" fill="#222222"/>
<path d="M413.796 185.098H410.39L407.763 181.396H394.237L391.609 185.098H388.171L400.237 167.987H401.762L413.796 185.098ZM405.849 178.658L400.983 171.783L396.118 178.658H405.849Z" fill="#222222"/>
<path d="M444.557 185.098H442.611L426.133 172.218V185.098H423.311V167.987H425.225L441.703 180.867V167.987H444.557V185.098Z" fill="#222222"/>
<path d="M467.742 185.098H464.887V177.165L454.021 167.987H458.303L466.282 174.738L474.294 167.987H478.608L467.742 177.165V185.098Z" fill="#222222"/>
<path d="M152.982 179.87L239.117 179.87Z" fill="#222222"/>
<path d="M152.982 179.87L239.117 179.87" stroke="#222222"/>
<path d="M499.873 0.25106C499.635 0.419873 499.306 0.719991 499.142 0.907562C498.977 1.09513 498.794 1.24519 498.721 1.24519C498.356 1.24519 493.494 6.27208 493.494 6.64722C493.494 6.72225 493.311 6.98484 493.073 7.24744C492.854 7.51004 492.233 8.39162 491.703 9.21693C491.191 10.0422 490.697 10.7925 490.606 10.9051C490.405 11.1864 488.742 14.6565 488.742 14.8253C488.742 14.9003 488.632 15.238 488.486 15.5568C487.06 18.8018 486 24.6352 486 29.1932C486 35.5331 487.663 43.4673 490.387 50.0136C490.697 50.7826 491.008 51.5891 491.081 51.7955C491.227 52.3394 494.773 59.6172 495.047 59.9548C495.175 60.1049 495.523 60.7051 495.815 61.2678C496.089 61.8305 496.564 62.6558 496.839 63.0872C497.113 63.5374 497.332 63.9313 497.332 63.9876C497.332 64.0438 497.423 64.1939 497.515 64.3252C497.624 64.4565 498.63 65.9758 499.745 67.739C500.878 69.4834 501.847 70.9652 501.92 71.0215C501.975 71.0777 502.34 71.5842 502.724 72.1469C503.108 72.7096 503.546 73.2911 503.674 73.4224C503.802 73.5537 503.912 73.7225 503.912 73.7975C503.912 73.8725 504.168 74.2289 504.46 74.5853C505.191 75.4669 505.228 75.5232 505.74 76.2734C505.996 76.6298 506.288 77.005 506.379 77.1175C506.489 77.2488 506.763 77.6052 507.019 77.9428C507.275 78.2804 507.622 78.7306 507.805 78.9557C507.988 79.1808 508.317 79.6122 508.536 79.8935C508.755 80.1937 509.158 80.6626 509.413 80.9627C509.669 81.2441 510.071 81.7505 510.327 82.0881C510.565 82.407 511.04 82.9885 511.369 83.3636C511.716 83.7388 512.448 84.6016 513.014 85.2393C513.581 85.8958 514.257 86.6648 514.513 86.965C514.933 87.4526 515.646 88.3155 516.542 89.4034C516.743 89.666 517.09 90.1162 517.309 90.3975C517.529 90.6976 517.931 91.2041 518.205 91.5229C518.479 91.8606 518.717 92.1794 518.717 92.2357C518.717 92.3107 518.954 92.6484 519.265 92.986C519.557 93.3424 519.813 93.68 519.813 93.7363C519.813 93.7925 519.978 94.0551 520.197 94.299C520.636 94.8242 522.189 97.2063 522.189 97.3751C522.189 97.4314 522.281 97.5815 522.39 97.7128C523.377 98.8757 527.216 106.472 527.6 108.048C527.654 108.311 527.782 108.592 527.874 108.648C527.965 108.704 528.038 108.929 528.038 109.173C528.038 109.398 528.111 109.661 528.203 109.755C528.385 109.961 528.989 111.893 529.318 113.319C529.427 113.825 529.61 114.425 529.683 114.632C529.775 114.838 529.884 115.251 529.921 115.569C529.976 115.87 530.14 116.845 530.286 117.727C531.328 123.616 531.164 129.487 529.756 135.733C529.391 137.309 528.057 141.586 527.837 141.811C527.746 141.923 527.673 142.111 527.673 142.261C527.673 143.03 523.743 150.833 522.774 151.977C522.683 152.071 522.5 152.371 522.372 152.633C522.244 152.877 522.08 153.121 522.025 153.177C521.952 153.234 521.605 153.74 521.239 154.303C520.873 154.866 520.417 155.541 520.197 155.785C519.978 156.028 519.813 156.291 519.813 156.347C519.813 156.404 519.576 156.722 519.302 157.06C519.027 157.379 518.625 157.885 518.406 158.186C518.168 158.467 517.748 159.011 517.437 159.367C517.145 159.724 516.578 160.399 516.213 160.849C514.897 162.425 508.079 169.308 507.823 169.308C507.768 169.308 507.549 169.496 507.312 169.721C506.891 170.134 506.197 170.753 504.826 171.878C504.479 172.16 504.168 172.46 504.131 172.535C504.095 172.628 503.985 172.685 503.875 172.685C503.784 172.685 503.601 172.797 503.455 172.91C503.089 173.285 502.596 173.679 501.901 174.185C501.554 174.429 501.225 174.692 501.17 174.748C501.006 174.954 494.517 179.362 494.188 179.494C493.622 179.7 493.841 180 494.554 180C495.468 180 499.397 179.512 501.353 179.137C505.246 178.424 510.949 176.699 513.709 175.405C514.257 175.142 514.769 174.936 514.824 174.936C515.079 174.936 521.02 171.859 521.769 171.334C522.189 171.053 522.573 170.809 522.646 170.809C522.701 170.809 523.359 170.378 524.109 169.871C524.858 169.346 525.552 168.933 525.662 168.933C525.754 168.933 525.845 168.877 525.845 168.783C525.845 168.708 526.302 168.352 526.85 167.995C527.399 167.639 527.855 167.283 527.855 167.189C527.855 167.114 527.929 167.058 528.038 167.058C528.203 167.058 528.678 166.701 529.226 166.157C529.372 166.045 529.519 165.932 529.574 165.932C529.647 165.932 529.921 165.726 530.195 165.482C530.469 165.219 530.89 164.844 531.145 164.619C532.736 163.269 533.558 162.5 534.746 161.299C535.477 160.549 536.135 159.93 536.227 159.93C536.3 159.93 536.482 159.742 536.629 159.536C536.775 159.311 537.36 158.654 537.908 158.054C539.078 156.798 540.394 155.297 540.96 154.547C541.18 154.265 541.509 153.834 541.692 153.609C541.874 153.384 542.203 152.952 542.423 152.671C542.642 152.39 542.989 151.939 543.19 151.696C543.41 151.452 543.574 151.189 543.574 151.133C543.574 151.077 543.757 150.814 543.994 150.551C544.214 150.289 545.164 148.901 546.096 147.456C547.01 146.012 547.851 144.737 547.961 144.605C548.052 144.474 548.143 144.324 548.143 144.268C548.143 144.212 548.363 143.818 548.637 143.367C548.911 142.936 549.386 142.111 549.66 141.548C549.953 140.985 550.3 140.385 550.428 140.235C550.666 139.916 553.956 133.07 554.467 131.794C554.65 131.325 554.943 130.669 555.125 130.331C555.308 129.994 555.454 129.637 555.454 129.544C555.454 129.45 555.656 128.906 555.911 128.343C556.167 127.78 556.368 127.255 556.368 127.199C556.368 127.124 556.478 126.805 556.624 126.486C556.77 126.148 557.081 125.342 557.3 124.667C557.52 123.991 557.776 123.372 557.867 123.279C557.94 123.166 558.013 122.903 558.013 122.678C558.013 122.435 558.105 122.191 558.196 122.134C558.306 122.078 558.379 121.816 558.379 121.572C558.379 121.328 558.452 121.065 558.562 121.009C558.653 120.953 558.744 120.69 558.744 120.446C558.744 120.202 558.818 119.94 558.927 119.884C559.037 119.827 559.11 119.602 559.11 119.396C559.11 119.208 559.183 118.889 559.274 118.702C559.366 118.533 559.622 117.708 559.859 116.882C560.079 116.057 560.408 114.875 560.609 114.275C560.791 113.656 560.938 113.019 560.938 112.831C560.938 112.643 561.029 112.437 561.12 112.381C561.23 112.325 561.303 112.062 561.303 111.818C561.303 111.574 561.376 111.312 561.486 111.255C561.577 111.199 561.669 110.974 561.669 110.768C561.669 110.58 561.742 110.261 561.852 110.074C561.943 109.905 562.235 109.08 562.51 108.254C562.784 107.429 563.094 106.491 563.241 106.191C563.369 105.872 563.661 105.084 563.88 104.409C564.1 103.734 564.356 103.096 564.41 103.002C564.484 102.89 564.611 102.608 564.685 102.346C564.758 102.083 565.014 101.464 565.251 100.958C565.489 100.433 565.69 99.9636 565.69 99.8698C565.69 99.5134 569.217 92.1044 570.588 89.591C571.904 87.1713 573.184 85.0142 573.549 84.5828C573.641 84.4515 573.732 84.2827 573.732 84.2077C573.732 84.1326 573.933 83.8138 574.189 83.5137C574.445 83.2136 574.646 82.8947 574.646 82.8197C574.646 82.7446 574.755 82.5571 574.883 82.4258C575.011 82.2945 575.413 81.713 575.779 81.1503C576.145 80.5876 576.602 79.9123 576.821 79.6685C577.04 79.4246 577.205 79.162 577.205 79.1058C577.205 79.0495 577.442 78.7306 577.716 78.393C577.991 78.0741 578.411 77.5302 578.649 77.2113C578.904 76.8737 579.307 76.3672 579.562 76.0859C579.818 75.7858 580.22 75.2981 580.458 74.9792C581.299 73.8725 587.458 67.6452 587.733 67.6452C587.787 67.6452 588.007 67.4576 588.244 67.2138C588.811 66.6511 589.432 66.1446 589.542 66.1446C589.633 66.1446 590.218 65.6757 590.639 65.2443C590.785 65.1317 590.968 65.0192 591.059 65.0192C591.169 65.0192 591.278 64.9442 591.315 64.8691C591.388 64.6441 594.148 62.7684 594.386 62.7684C594.477 62.7684 594.568 62.6746 594.568 62.5808C594.568 62.4682 594.678 62.3932 594.824 62.3932C594.97 62.3932 595.117 62.3369 595.153 62.2432C595.245 62.0368 599.54 59.7485 601.331 58.9419C604.018 57.7415 608.276 56.3909 611.566 55.7157C615.734 54.8529 621.546 54.4777 624.635 54.8904C625.329 54.9842 625.951 55.0217 625.987 54.9654C626.261 54.6841 622.039 53.5211 619.225 53.1085C616.775 52.7521 611.219 52.7521 608.368 53.1085C600.472 54.0838 592.814 56.5598 584.242 60.9114C582.834 61.6242 581.317 62.4307 580.86 62.7121C580.403 62.9747 579.764 63.3498 579.453 63.5374C577.936 64.4377 577.515 64.6628 576.894 65.038C576.51 65.263 575.98 65.6007 575.706 65.7882C575.45 65.9946 575.176 66.1446 575.121 66.1446C575.048 66.1446 574.39 66.5573 573.641 67.0825C572.891 67.5889 572.197 68.0203 572.087 68.0203C571.996 68.0203 571.904 68.0954 571.904 68.1704C571.904 68.2642 571.685 68.4517 571.411 68.6018C571.118 68.7519 570.862 68.9207 570.808 68.9769C570.753 69.0332 570.058 69.5397 569.254 70.0836C568.45 70.6276 567.773 71.1528 567.737 71.2465C567.7 71.3216 567.591 71.3966 567.481 71.3966C567.39 71.3966 567.207 71.5091 567.061 71.6217C566.512 72.1656 566.037 72.522 565.873 72.522C565.763 72.522 565.69 72.5971 565.69 72.6721C565.69 72.7471 565.471 72.9534 565.196 73.1223C564.904 73.2911 564.502 73.5912 564.282 73.7788C563.332 74.6041 563.113 74.7729 563.021 74.7729C562.967 74.7729 562.82 74.8854 562.692 74.998C562.564 75.1293 562.181 75.4481 561.852 75.7107C561.523 75.9733 561.12 76.311 560.938 76.461C560.755 76.6111 560.353 76.9487 560.024 77.2113C559.421 77.699 559.037 78.0178 558.16 78.8244C557.885 79.0682 557.611 79.2746 557.556 79.2746C557.465 79.2746 556.661 79.9873 555.71 80.9064C555.381 81.2441 555.052 81.5254 554.998 81.5254C554.943 81.5254 554.65 81.7693 554.321 82.0881C554.011 82.3882 553.316 83.0447 552.768 83.5324C551.05 85.0893 549.076 86.9837 546.992 89.0845C545.274 90.8477 544.927 91.1103 544.543 90.9977C544.068 90.8852 538.036 86.8337 537.945 86.5523C537.908 86.4773 537.762 86.4023 537.616 86.4023C537.469 86.4023 537.36 86.346 537.36 86.2522C537.36 86.1772 536.903 85.8208 536.354 85.4644C535.806 85.108 535.349 84.7516 535.349 84.6578C535.349 84.5828 535.221 84.5265 535.075 84.5265C534.929 84.5265 534.801 84.4515 534.801 84.3765C534.801 84.3015 534.582 84.0951 534.307 83.9263C534.015 83.7575 533.613 83.4574 533.394 83.2698C532.443 82.4445 532.224 82.2757 532.151 82.2757C532.078 82.2757 531.913 82.1444 530.963 81.3378C530.798 81.1878 530.378 80.8502 530.049 80.5876C529.72 80.325 529.336 80.0061 529.208 79.8748C529.08 79.7623 528.934 79.6497 528.879 79.6497C528.769 79.6497 527.965 78.9557 527.38 78.3742C527.252 78.2617 527.106 78.1491 527.051 78.1491C526.942 78.1491 526.247 77.5489 525.388 76.6861C525.15 76.461 524.894 76.2734 524.84 76.2734C524.785 76.2734 524.547 76.0859 524.31 75.8608C524.09 75.6169 523.469 75.0542 522.939 74.5853C520.417 72.372 513.398 65.3193 511.223 62.8059C509.413 60.7238 508.28 59.3733 507.622 58.5105C507.403 58.2292 507.056 57.779 506.855 57.5164C506.233 56.7473 506.197 56.6911 505.74 56.0158C505.484 55.6594 505.1 55.153 504.881 54.8904C504.643 54.6465 504.46 54.3652 504.46 54.2902C504.46 54.2339 504.332 54.0276 504.168 53.8775C503.894 53.5774 501.189 49.4508 500.531 48.3067C499.617 46.6935 498.392 44.4052 498.045 43.6361C497.844 43.1672 497.35 42.1168 496.985 41.2915C496.601 40.4662 496.107 39.2845 495.888 38.6655C495.651 38.0465 495.395 37.3713 495.322 37.165C495.23 36.9586 495.066 36.4522 494.938 36.0395C494.828 35.6269 494.664 35.1204 494.572 34.9141C494.28 34.1826 493.494 30.5625 493.201 28.6305C492.818 26.1733 492.781 20.4149 493.11 18.0328C493.475 15.4443 494.828 10.3424 495.322 9.59208C495.395 9.47953 495.559 9.08564 495.687 8.67299C495.98 7.75389 497.679 4.35885 497.899 4.28383C497.99 4.24631 498.063 4.13377 498.063 4.03998C498.063 3.87117 499.269 1.84541 499.653 1.33897C500.019 0.870041 500.457 0.0822464 500.403 0.00721817C500.366 -0.030296 500.128 0.0822462 499.873 0.25106Z" fill="#222222"/>
<path d="M541.838 39.0218C540.522 39.3406 539.206 39.7908 538.091 40.316C535.733 41.4227 532.79 44.0487 531.017 46.5996C530.487 47.3499 528.769 50.9138 528.769 51.2514C528.769 51.4014 528.696 51.664 528.605 51.8516C527.801 53.3522 527.399 59.1106 527.929 61.6991C528.641 65.2441 530.232 68.3578 532.553 70.7775C535.404 73.7411 539.005 75.3354 542.825 75.3354C544.506 75.3354 546.499 75.0166 547.687 74.5664C548.582 74.2288 551.342 72.822 551.397 72.6719C551.433 72.5782 551.58 72.5219 551.726 72.5219C551.872 72.5219 551.982 72.4281 551.982 72.3343C551.982 72.2218 552.073 72.1467 552.165 72.1467C552.384 72.1467 553.17 71.4715 554.431 70.1585C555.619 68.9393 555.966 68.5079 556.679 67.3637C557.008 66.8385 557.337 66.3321 557.428 66.2383C557.63 65.9757 558.562 63.9874 558.562 63.8186C558.562 63.7248 558.671 63.406 558.818 63.0871C559.384 61.7741 559.859 59.2231 559.969 57.0286C560.097 54.5151 559.75 51.7766 559.092 49.9947C558.891 49.4319 558.635 48.7379 558.525 48.4191C558.233 47.65 558.05 47.3124 557.081 45.7931C555.052 42.6419 551.799 40.1847 548.418 39.2281C546.901 38.8154 543.227 38.6841 541.838 39.0218Z" fill="#222222"/>
</svg>
