<svg width="800" height="250" viewBox="0 0 800 250" fill="none" xmlns="http://www.w3.org/2000/svg">
<path d="M137.341 14.093H139.859C167.176 16.3789 113.257 96.9886 90.9658 102.883C89.888 103.213 91.3285 104.526 94.2094 104.526C97.8054 104.526 103.909 103.213 112.179 97.3098C134.823 82.2439 161.073 45.8684 159.269 19.6565C158.192 3.92942 147.414 0 132.667 0C89.5356 0 38.8495 47.1814 14.4028 96.9886C-7.16295 142.205 -6.44789 189.387 29.8542 201.184C34.1757 202.167 38.4867 203.149 43.5232 203.149C74.4365 203.149 109.661 174.973 129.434 154.003C130.512 153.021 133.745 149.743 131.589 148.761C130.874 148.43 129.797 148.099 129.071 148.099C126.916 148.099 124.76 150.064 122.967 151.377C105.713 168.417 78.0325 190.369 52.1454 190.369C42.0828 190.369 33.813 186.761 28.7765 180.215C-8.96614 132.372 88.0952 14.093 137.341 14.093Z" fill="white"/>
<path d="M189.827 114.029L189.464 113.698C188.023 104.848 183.712 90.1028 171.494 90.1028C169.339 90.1028 166.458 90.764 163.224 92.7287C145.607 101.9 114.331 153.021 121.523 178.25C123.679 186.44 130.156 190.038 135.907 190.038C139.14 190.038 142.011 189.056 144.177 186.761C152.436 178.571 165.38 161.862 176.168 146.135C161.069 181.849 134.467 239.194 104.268 239.194C90.6097 239.194 87.3764 227.066 87.3764 216.25C87.3764 214.616 87.7288 211.339 84.8582 211.008C82.3399 210.687 82.7027 214.286 82.7027 215.929C83.055 231.977 89.1693 250 110.383 250C113.253 250 116.849 249.348 120.445 248.696L120.808 248.366C162.147 237.881 191.982 155.637 205.288 128.443C208.522 122.218 211.392 115.332 214.626 108.786C217.869 101.9 209.237 99.9358 203.122 99.9358C201.33 99.9358 199.174 100.266 198.811 100.588C195.578 103.213 193.423 107.143 190.904 111.733L189.827 114.029ZM184.075 122.218L183.712 122.539C168.976 144.501 142.011 180.867 136.622 180.867C124.404 180.867 161.432 103.544 177.608 103.544H178.323C180.842 103.865 181.557 107.143 182.272 111.733C182.635 112.716 183.712 119.923 184.075 122.218Z" fill="white"/>
<path d="M312.05 38.6614C304.495 38.6614 301.987 41.939 298.743 47.512C288.681 64.5521 273.944 90.764 262.079 116.976C261.001 108.786 255.249 100.918 245.902 100.918C222.18 100.918 195.931 153.672 198.449 180.215C198.812 186.761 203.848 193.977 211.03 193.977C212.107 193.977 213.548 193.977 214.626 193.647C223.973 190.038 243.031 161.21 250.938 148.43C246.264 160.88 244.461 172.016 246.627 181.849C248.42 187.422 252.379 191.021 255.612 192.334C256.69 192.664 257.405 192.995 258.483 192.995C273.229 192.995 303.065 151.708 312.765 138.928C313.127 138.597 313.49 137.615 313.49 137.284C317.439 132.703 320.319 128.443 321.75 126.148C321.035 123.531 319.594 122.218 317.801 122.218C317.439 122.218 317.076 122.218 316.723 122.539C312.765 128.774 272.504 179.554 264.96 179.554C253.094 179.554 309.894 64.5521 326.071 49.4767C329.304 46.5297 321.75 38.6614 312.05 38.6614ZM251.301 116.315C256.69 116.315 257.768 125.496 257.768 128.443C256.69 131.39 256.327 132.372 254.887 135.319C243.031 153.021 222.895 180.536 217.507 180.536C216.066 180.536 215.703 179.233 216.066 176.276C218.222 161.21 240.513 116.315 251.301 116.315Z" fill="white"/>
<path d="M362.01 164.809C361.295 162.844 361.657 159.566 363.45 154.324C364.891 146.465 369.564 132.042 376.756 126.799C379.627 125.165 379.275 124.835 377.109 122.539C373.523 118.61 369.564 116.976 365.968 116.976C364.528 116.976 363.098 117.297 361.295 117.958C364.176 108.456 365.968 97.9709 358.061 90.1026C355.906 88.1379 352.673 86.1732 349.076 86.1732C345.118 86.1732 340.807 88.1379 335.77 92.0673C314.204 108.125 273.944 173.99 302.339 185.778C304.494 186.761 305.935 187.422 308.09 187.422C308.816 187.422 309.531 187.091 310.246 187.091C319.956 183.162 332.9 163.826 343.677 147.778C343.677 148.43 343.677 148.761 343.325 149.743C341.884 158.584 340.807 169.399 347.999 175.624C350.154 177.589 352.673 178.902 355.906 178.902C375.316 178.902 404.436 135.65 411.618 126.147C410.54 122.539 409.463 122.539 406.592 122.539C404.789 124.835 373.523 165.791 364.176 165.791C363.45 165.791 362.735 165.47 362.01 164.809ZM347.273 109.107C350.154 106.812 352.31 105.178 354.103 105.178C356.984 105.178 357.699 110.42 356.258 121.236C353.025 123.531 351.232 126.799 349.429 130.077C336.133 146.786 319.241 172.677 313.842 172.677C308.816 168.748 333.252 122.87 347.273 109.107Z" fill="white"/>
<path d="M477.409 98.9533C473.813 95.6756 469.139 94.3627 464.465 94.3627C459.429 96.0062 405.509 161.21 399.758 169.069C403.354 162.844 407.312 157.932 410.183 152.029C420.246 134.337 420.246 136.302 430.319 118.61C432.474 115.332 433.915 113.698 431.034 110.751L430.319 110.09C427.075 107.143 422.401 105.509 418.09 105.509C412.701 105.509 410.183 106.491 408.028 111.072C394.369 135.981 390.058 140.241 379.985 166.452C376.389 176.607 378.192 182.831 388.617 187.422C390.41 188.074 392.213 189.056 393.291 189.056C395.447 189.056 396.524 187.743 397.965 185.457C414.494 162.514 433.189 140.892 452.247 119.592C444.692 131.72 421.323 178.902 446.133 183.814C447.211 184.144 447.926 184.144 449.003 184.144C469.502 184.144 499.337 147.448 510.115 133.355C511.918 130.408 514.074 128.112 515.151 126.478C514.436 124.183 512.633 122.87 511.555 122.87C511.203 122.87 510.84 123.2 510.84 123.2C510.115 124.183 505.452 129.425 500.052 136.302L499.337 137.284L498.975 137.615C489.275 148.43 472.735 170.382 458.714 172.347C442.9 173.99 474.891 118.289 478.849 110.09L479.202 109.107C481.005 105.178 481.005 101.57 477.409 98.9533Z" fill="white"/>
<path d="M553.979 119.923V119.592C555.057 117.627 555.409 115.663 555.772 113.698C558.29 102.883 550.02 93.7109 538.517 93.7109C534.558 93.7109 530.61 94.6933 526.299 97.3098C504.008 111.072 469.861 160.879 490.701 184.144C494.66 189.056 500.412 191.021 507.241 191.021C533.128 191.021 557.575 159.566 570.508 142.857C575.182 136.632 579.141 131.721 581.296 129.095C581.296 126.478 579.141 125.496 577.7 125.496C577.337 125.496 576.985 125.496 576.985 125.817C562.601 143.839 533.128 180.215 506.526 180.215C482.794 177.589 530.247 107.143 544.984 107.143C545.709 107.143 546.787 107.473 547.15 108.125C550.02 112.716 541.035 127.13 537.077 130.738C535.646 132.372 530.973 136.302 534.558 137.615C534.921 137.945 535.646 137.945 535.999 137.945C542.828 137.945 551.461 124.513 553.979 119.923Z" fill="white"/>
<path d="M577.702 191.021C603.227 191.021 628.026 159.567 641.332 142.857C646.006 136.632 649.591 131.721 651.757 129.095C651.757 126.478 649.591 125.496 648.161 125.496C647.798 125.496 647.436 125.496 647.436 125.817C633.062 143.839 603.227 180.215 576.977 180.215C566.551 179.233 568.717 167.435 574.821 154.003C576.977 156.62 580.935 157.932 585.246 157.932C597.475 157.602 612.211 140.892 616.885 130.738V130.077C617.963 128.443 618.326 126.478 619.041 124.183C621.196 113.698 612.926 104.526 601.786 104.526C597.827 104.526 593.516 105.509 589.205 108.125C566.914 121.557 539.949 160.88 561.163 184.144C565.121 189.056 570.873 191.021 577.702 191.021ZM607.175 117.628C608.615 117.628 609.693 117.958 610.408 118.941C611.134 120.575 610.771 122.539 610.056 125.165C604.657 136.963 588.48 150.395 581.298 150.395C579.495 150.395 578.417 149.743 577.702 148.099C586.687 132.703 600.346 117.628 607.175 117.628Z" fill="white"/>
<path d="M349.762 224.798C351.751 224.798 353.451 224.156 354.86 222.871C356.291 221.587 357.016 220.028 357.016 218.186H353.368C353.368 219.121 353.005 219.915 352.29 220.566C351.596 221.199 350.757 221.511 349.762 221.511H337.077C336.082 221.511 335.222 221.199 334.507 220.566C333.813 219.915 333.471 219.121 333.471 218.186V210.63C333.471 209.723 333.813 208.948 334.507 208.287C335.222 207.635 336.082 207.305 337.077 207.305H349.762C350.757 207.305 351.596 207.635 352.29 208.287C353.005 208.948 353.368 209.723 353.368 210.63H357.016C357.016 208.816 356.291 207.267 354.86 205.982C353.451 204.679 351.751 204.018 349.762 204.018H337.077C335.088 204.018 333.367 204.679 331.937 205.982C330.528 207.267 329.823 208.816 329.823 210.63V218.186C329.823 220.028 330.528 221.587 331.937 222.871C333.367 224.156 335.088 224.798 337.077 224.798H349.762Z" fill="#222222"/>
<path d="M390.156 224.798C392.145 224.798 393.845 224.156 395.254 222.871C396.684 221.587 397.41 220.028 397.41 218.186V210.63C397.41 208.816 396.684 207.267 395.254 205.982C393.845 204.679 392.145 204.018 390.156 204.018H377.471C375.481 204.018 373.761 204.679 372.331 205.982C370.921 207.267 370.217 208.816 370.217 210.63V218.186C370.217 220.028 370.921 221.587 372.331 222.871C373.761 224.156 375.481 224.798 377.471 224.798H390.156ZM390.156 221.511H377.471C376.476 221.511 375.616 221.199 374.901 220.566C374.207 219.915 373.865 219.121 373.865 218.186V210.63C373.865 209.723 374.207 208.948 374.901 208.287C375.616 207.635 376.476 207.305 377.471 207.305H390.156C391.15 207.305 391.99 207.635 392.684 208.287C393.399 208.948 393.762 209.723 393.762 210.63V218.186C393.762 219.121 393.399 219.915 392.684 220.566C391.99 221.199 391.15 221.511 390.156 221.511Z" fill="#222222"/>
<path d="M442.778 224.798H439.171V210.781L428.021 224.798H426.155L415.046 210.781V224.798H411.44V204.018H414.176L427.109 220.34L440.042 204.018H442.778V224.798Z" fill="#222222"/>
<path d="M461.22 224.798H457.613V204.018H479.334C480.827 204.018 482.091 204.509 483.148 205.491C484.226 206.455 484.765 207.607 484.765 208.967V212.33C484.765 213.718 484.226 214.89 483.148 215.844C482.091 216.807 480.827 217.279 479.334 217.279H461.22V224.798ZM479.334 213.992C479.832 213.992 480.246 213.832 480.578 213.501C480.93 213.18 481.117 212.783 481.117 212.33V208.967C481.117 208.514 480.93 208.126 480.578 207.796C480.246 207.475 479.832 207.305 479.334 207.305H461.22V213.992H479.334Z" fill="#222222"/>
<path d="M528.813 224.798H524.46L521.102 220.302H503.817L500.459 224.798H496.065L511.485 204.018H513.434L528.813 224.798ZM518.657 216.977L512.439 208.627L506.221 216.977H518.657Z" fill="#222222"/>
<path d="M568.124 224.798H565.637L544.579 209.156V224.798H540.973V204.018H543.419L564.477 219.66V204.018H568.124V224.798Z" fill="#222222"/>
<path d="M597.753 224.798H594.105V215.164L580.219 204.018H585.69L595.888 212.216L606.126 204.018H611.64L597.753 215.164V224.798Z" fill="#222222"/>
<path d="M195.504 218.448L305.581 218.448Z" fill="#222222"/>
<path d="M195.504 218.448L305.581 218.448" stroke="#222222"/>
<path d="M638.815 0.304936C638.511 0.509958 638.091 0.874445 637.88 1.10225C637.67 1.33005 637.437 1.51228 637.343 1.51228C636.876 1.51228 630.663 7.61735 630.663 8.07296C630.663 8.16408 630.429 8.483 630.126 8.80192C629.845 9.12084 629.051 10.1915 628.374 11.1938C627.72 12.1962 627.089 13.1074 626.972 13.244C626.715 13.5857 624.59 17.8001 624.59 18.0051C624.59 18.0962 624.45 18.5063 624.263 18.8935C622.441 22.8345 621.086 29.9191 621.086 35.4547C621.086 43.1543 623.212 52.7903 626.692 60.7406C627.089 61.6746 627.486 62.6541 627.58 62.9047C627.767 63.5653 632.298 72.404 632.648 72.8141C632.812 72.9963 633.256 73.7253 633.629 74.4087C633.98 75.0921 634.587 76.0944 634.937 76.6183C635.288 77.1651 635.568 77.6434 635.568 77.7118C635.568 77.7801 635.685 77.9624 635.802 78.1218C635.942 78.2813 637.226 80.1265 638.651 82.2678C640.099 84.3864 641.337 86.186 641.431 86.2543C641.501 86.3227 641.968 86.9377 642.459 87.6211C642.949 88.3045 643.51 89.0107 643.673 89.1702C643.837 89.3296 643.977 89.5347 643.977 89.6258C643.977 89.7169 644.304 90.1497 644.678 90.5825C645.612 91.6532 645.659 91.7216 646.313 92.6328C646.64 93.0656 647.013 93.5212 647.13 93.6579C647.27 93.8173 647.621 94.2501 647.948 94.6602C648.275 95.0702 648.718 95.617 648.952 95.8903C649.186 96.1637 649.606 96.6876 649.886 97.0293C650.167 97.3938 650.681 97.9633 651.008 98.3278C651.335 98.6695 651.848 99.2846 652.175 99.6946C652.479 100.082 653.086 100.788 653.507 101.244C653.951 101.699 654.885 102.747 655.609 103.522C656.333 104.319 657.197 105.253 657.524 105.617C658.062 106.21 658.973 107.258 660.117 108.579C660.374 108.898 660.818 109.444 661.098 109.786C661.378 110.151 661.892 110.766 662.243 111.153C662.593 111.563 662.897 111.95 662.897 112.019C662.897 112.11 663.2 112.52 663.597 112.93C663.971 113.363 664.298 113.773 664.298 113.841C664.298 113.909 664.508 114.228 664.789 114.524C665.349 115.162 667.335 118.055 667.335 118.26C667.335 118.329 667.451 118.511 667.592 118.67C668.853 120.083 673.758 129.309 674.249 131.222C674.319 131.541 674.482 131.883 674.599 131.951C674.716 132.02 674.809 132.293 674.809 132.589C674.809 132.862 674.903 133.181 675.019 133.295C675.253 133.546 676.024 135.892 676.444 137.623C676.584 138.239 676.818 138.968 676.911 139.218C677.028 139.469 677.168 139.97 677.215 140.357C677.285 140.722 677.495 141.906 677.682 142.977C679.014 150.13 678.803 157.26 677.005 164.846C676.538 166.759 674.833 171.953 674.552 172.226C674.435 172.363 674.342 172.591 674.342 172.773C674.342 173.707 669.32 183.184 668.082 184.573C667.965 184.687 667.732 185.052 667.568 185.371C667.405 185.667 667.195 185.963 667.124 186.031C667.031 186.1 666.587 186.715 666.12 187.398C665.653 188.081 665.069 188.902 664.789 189.198C664.508 189.494 664.298 189.813 664.298 189.881C664.298 189.949 663.994 190.337 663.644 190.747C663.294 191.134 662.78 191.749 662.5 192.114C662.196 192.455 661.659 193.116 661.262 193.549C660.888 193.982 660.164 194.802 659.697 195.348C658.015 197.262 649.302 205.622 648.975 205.622C648.905 205.622 648.625 205.85 648.321 206.123C647.784 206.624 646.897 207.376 645.145 208.743C644.701 209.085 644.304 209.449 644.257 209.54C644.21 209.654 644.07 209.723 643.93 209.723C643.813 209.723 643.58 209.859 643.393 209.996C642.926 210.452 642.295 210.93 641.407 211.545C640.964 211.841 640.543 212.16 640.473 212.228C640.263 212.479 631.971 217.832 631.55 217.992C630.826 218.242 631.107 218.607 632.018 218.607C633.186 218.607 638.207 218.015 640.707 217.559C645.682 216.693 652.97 214.598 656.497 213.026C657.197 212.707 657.851 212.456 657.921 212.456C658.248 212.456 665.84 208.72 666.797 208.082C667.335 207.741 667.825 207.445 667.919 207.445C667.989 207.445 668.83 206.921 669.787 206.306C670.745 205.668 671.632 205.167 671.773 205.167C671.889 205.167 672.006 205.098 672.006 204.984C672.006 204.893 672.59 204.46 673.291 204.028C673.992 203.595 674.576 203.162 674.576 203.048C674.576 202.957 674.669 202.889 674.809 202.889C675.019 202.889 675.627 202.456 676.327 201.795C676.514 201.658 676.701 201.522 676.771 201.522C676.865 201.522 677.215 201.271 677.565 200.975C677.916 200.656 678.453 200.2 678.78 199.927C680.812 198.287 681.863 197.353 683.381 195.895C684.316 194.984 685.157 194.232 685.273 194.232C685.367 194.232 685.6 194.004 685.787 193.754C685.974 193.48 686.722 192.683 687.422 191.954C688.917 190.428 690.599 188.605 691.323 187.694C691.603 187.352 692.024 186.829 692.257 186.555C692.491 186.282 692.911 185.758 693.192 185.416C693.472 185.074 693.916 184.528 694.173 184.232C694.453 183.935 694.663 183.617 694.663 183.548C694.663 183.48 694.897 183.161 695.201 182.842C695.481 182.523 696.695 180.837 697.887 179.083C699.055 177.329 700.129 175.78 700.269 175.621C700.386 175.461 700.503 175.279 700.503 175.211C700.503 175.142 700.783 174.664 701.133 174.117C701.484 173.593 702.091 172.591 702.441 171.908C702.815 171.224 703.259 170.495 703.422 170.313C703.726 169.926 707.931 161.611 708.585 160.062C708.818 159.492 709.192 158.695 709.425 158.285C709.659 157.875 709.846 157.442 709.846 157.328C709.846 157.214 710.103 156.554 710.43 155.87C710.757 155.187 711.014 154.549 711.014 154.481C711.014 154.39 711.154 154.002 711.341 153.615C711.528 153.205 711.925 152.226 712.205 151.405C712.485 150.585 712.812 149.834 712.929 149.72C713.023 149.583 713.116 149.264 713.116 148.991C713.116 148.695 713.233 148.398 713.35 148.33C713.49 148.262 713.583 147.943 713.583 147.647C713.583 147.351 713.677 147.032 713.817 146.963C713.933 146.895 714.05 146.576 714.05 146.28C714.05 145.984 714.144 145.665 714.284 145.597C714.424 145.528 714.517 145.255 714.517 145.004C714.517 144.776 714.611 144.389 714.728 144.161C714.844 143.956 715.171 142.954 715.475 141.952C715.755 140.949 716.176 139.514 716.433 138.785C716.666 138.034 716.853 137.259 716.853 137.031C716.853 136.803 716.97 136.553 717.087 136.484C717.227 136.416 717.32 136.097 717.32 135.801C717.32 135.505 717.414 135.186 717.554 135.118C717.671 135.049 717.788 134.776 717.788 134.525C717.788 134.298 717.881 133.91 718.021 133.683C718.138 133.478 718.512 132.475 718.862 131.473C719.212 130.471 719.609 129.332 719.796 128.967C719.96 128.58 720.334 127.623 720.614 126.803C720.894 125.983 721.221 125.208 721.291 125.094C721.385 124.958 721.548 124.616 721.642 124.297C721.735 123.978 722.062 123.226 722.366 122.611C722.669 121.974 722.926 121.404 722.926 121.29C722.926 120.857 727.434 111.859 729.186 108.807C730.868 105.868 732.503 103.248 732.97 102.724C733.087 102.565 733.204 102.36 733.204 102.269C733.204 102.178 733.461 101.79 733.788 101.426C734.115 101.061 734.372 100.674 734.372 100.583C734.372 100.492 734.512 100.264 734.675 100.105C734.839 99.9452 735.353 99.239 735.82 98.5556C736.287 97.8722 736.871 97.0521 737.151 96.756C737.431 96.4598 737.642 96.1409 737.642 96.0726C737.642 96.0042 737.945 95.617 738.296 95.2069C738.646 94.8197 739.183 94.159 739.487 93.7718C739.814 93.3617 740.328 92.7467 740.655 92.405C740.982 92.0405 741.496 91.4482 741.799 91.0609C742.874 89.7169 750.745 82.1539 751.096 82.1539C751.166 82.1539 751.446 81.9261 751.75 81.63C752.474 80.9466 753.268 80.3315 753.408 80.3315C753.525 80.3315 754.272 79.762 754.81 79.2381C754.997 79.1014 755.23 78.9647 755.347 78.9647C755.487 78.9647 755.627 78.8736 755.674 78.7824C755.767 78.5091 759.294 76.2311 759.598 76.2311C759.715 76.2311 759.832 76.1172 759.832 76.0033C759.832 75.8666 759.972 75.7755 760.159 75.7755C760.345 75.7755 760.532 75.7071 760.579 75.5932C760.696 75.3426 766.185 72.5635 768.474 71.5839C771.908 70.126 777.35 68.4858 781.554 67.6657C786.88 66.6179 794.308 66.1623 798.255 66.6634C799.143 66.7773 799.937 66.8229 799.984 66.7545C800.334 66.4128 794.938 65.0005 791.341 64.4993C788.211 64.0665 781.111 64.0665 777.467 64.4993C767.376 65.6839 757.589 68.6909 746.634 73.9758C744.836 74.8415 742.897 75.821 742.313 76.1627C741.729 76.4816 740.912 76.9373 740.515 77.1651C738.576 78.2585 738.039 78.5319 737.245 78.9875C736.754 79.2608 736.077 79.6709 735.726 79.8987C735.399 80.1493 735.049 80.3315 734.979 80.3315C734.885 80.3315 734.045 80.8327 733.087 81.4705C732.129 82.0856 731.242 82.6095 731.101 82.6095C730.985 82.6095 730.868 82.7006 730.868 82.7917C730.868 82.9056 730.588 83.1334 730.237 83.3157C729.864 83.4979 729.537 83.703 729.466 83.7713C729.396 83.8396 728.509 84.4547 727.481 85.1153C726.453 85.7759 725.589 86.4138 725.542 86.5277C725.496 86.6188 725.355 86.7099 725.215 86.7099C725.099 86.7099 724.865 86.8466 724.678 86.9833C723.977 87.6439 723.37 88.0767 723.16 88.0767C723.02 88.0767 722.926 88.1679 722.926 88.259C722.926 88.3501 722.646 88.6007 722.296 88.8057C721.922 89.0107 721.408 89.3752 721.128 89.603C719.913 90.6053 719.633 90.8104 719.516 90.8104C719.446 90.8104 719.259 90.947 719.096 91.0837C718.932 91.2432 718.442 91.6304 718.021 91.9494C717.601 92.2683 717.087 92.6783 716.853 92.8606C716.62 93.0428 716.106 93.4528 715.685 93.7718C714.915 94.364 714.424 94.7513 713.303 95.7309C712.952 96.027 712.602 96.2776 712.532 96.2776C712.415 96.2776 711.387 97.1432 710.173 98.2594C709.752 98.6695 709.332 99.0112 709.262 99.0112C709.192 99.0112 708.818 99.3073 708.398 99.6946C708.001 100.059 707.113 100.856 706.412 101.449C704.217 103.339 701.694 105.64 699.031 108.192C696.836 110.333 696.392 110.652 695.901 110.515C695.294 110.378 687.586 105.458 687.469 105.116C687.422 105.025 687.236 104.934 687.049 104.934C686.862 104.934 686.722 104.866 686.722 104.752C686.722 104.661 686.138 104.228 685.437 103.795C684.736 103.362 684.152 102.929 684.152 102.815C684.152 102.724 683.989 102.656 683.802 102.656C683.615 102.656 683.452 102.565 683.452 102.474C683.452 102.383 683.171 102.132 682.821 101.927C682.447 101.722 681.933 101.358 681.653 101.13C680.438 100.127 680.158 99.9224 680.065 99.9224C679.971 99.9224 679.761 99.7629 678.546 98.7834C678.336 98.6011 677.799 98.1911 677.379 97.8722C676.958 97.5533 676.468 97.166 676.304 97.0065C676.141 96.8699 675.954 96.7332 675.884 96.7332C675.743 96.7332 674.716 95.8903 673.968 95.1841C673.805 95.0474 673.618 94.9108 673.548 94.9108C673.408 94.9108 672.52 94.1818 671.422 93.1339C671.119 92.8606 670.792 92.6328 670.722 92.6328C670.651 92.6328 670.348 92.405 670.044 92.1316C669.764 91.8355 668.97 91.1521 668.292 90.5825C665.069 87.8945 656.1 79.3292 653.32 76.2766C651.008 73.748 649.559 72.1079 648.718 71.06C648.438 70.7183 647.994 70.1716 647.737 69.8526C646.943 68.9187 646.897 68.8503 646.313 68.0302C645.986 67.5974 645.495 66.9823 645.215 66.6634C644.911 66.3673 644.678 66.0256 644.678 65.9345C644.678 65.8661 644.514 65.6155 644.304 65.4333C643.953 65.0688 640.497 60.0572 639.656 58.6676C638.488 56.7085 636.923 53.9293 636.479 52.9953C636.222 52.4258 635.591 51.1502 635.124 50.1478C634.634 49.1455 634.003 47.7104 633.723 46.9586C633.419 46.2069 633.092 45.3868 632.999 45.1362C632.882 44.8856 632.672 44.2706 632.508 43.7694C632.368 43.2682 632.158 42.6532 632.041 42.4026C631.667 41.5142 630.663 37.1176 630.289 34.7713C629.799 31.7871 629.752 24.7936 630.172 21.9005C630.64 18.7568 632.368 12.5606 632.999 11.6494C633.092 11.5128 633.302 11.0344 633.466 10.5332C633.84 9.41699 636.012 5.29378 636.292 5.20266C636.409 5.1571 636.502 5.02042 636.502 4.90652C636.502 4.7015 638.044 2.24124 638.534 1.62618C639.002 1.05668 639.562 0.0999157 639.492 0.00879523C639.445 -0.036765 639.142 0.0999154 638.815 0.304936Z" fill="#222222"/>
<path d="M692.444 47.3912C690.763 47.7785 689.081 48.3252 687.656 48.963C684.643 50.3071 680.882 53.4963 678.616 56.5944C677.939 57.5056 675.743 61.8338 675.743 62.2439C675.743 62.4261 675.65 62.745 675.533 62.9728C674.506 64.7952 673.992 71.7887 674.669 74.9324C675.58 79.2378 677.612 83.0193 680.579 85.958C684.222 89.5572 688.824 91.4935 693.706 91.4935C695.855 91.4935 698.401 91.1063 699.919 90.5595C701.063 90.1495 704.59 88.441 704.66 88.2588C704.707 88.1449 704.894 88.0765 705.081 88.0765C705.268 88.0765 705.408 87.9626 705.408 87.8487C705.408 87.712 705.525 87.6209 705.641 87.6209C705.922 87.6209 706.926 86.8008 708.538 85.2062C710.056 83.7255 710.5 83.2016 711.411 81.812C711.831 81.1741 712.252 80.5591 712.369 80.4452C712.625 80.1263 713.817 77.7116 713.817 77.5065C713.817 77.3926 713.957 77.0054 714.144 76.6181C714.868 75.0235 715.475 71.9254 715.615 69.2601C715.779 66.2076 715.335 62.8817 714.494 60.7176C714.237 60.0342 713.91 59.1913 713.77 58.8041C713.396 57.8701 713.163 57.46 711.925 55.6148C709.332 51.7878 705.174 48.8036 700.853 47.6418C698.914 47.1406 694.22 46.9812 692.444 47.3912Z" fill="#222222"/>
</svg>
