<svg width="755" height="247" viewBox="0 0 755 247" fill="none" xmlns="http://www.w3.org/2000/svg">
<path d="M609.854 0.278976C609.583 0.466553 609.207 0.800003 609.019 1.00842C608.831 1.21683 608.622 1.38356 608.538 1.38356C608.121 1.38356 602.564 6.96899 602.564 7.38582C602.564 7.46918 602.355 7.76096 602.084 8.05273C601.833 8.34451 601.123 9.32405 600.517 10.2411C599.932 11.1581 599.368 11.9917 599.264 12.1168C599.034 12.4294 597.133 16.285 597.133 16.4726C597.133 16.5559 597.008 16.9311 596.841 17.2854C595.212 20.8909 594 27.3725 594 32.4369C594 39.4812 595.901 48.2971 599.013 55.5706C599.368 56.4251 599.723 57.3213 599.807 57.5505C599.974 58.1549 604.027 66.2413 604.34 66.6165C604.486 66.7832 604.883 67.4501 605.217 68.0753C605.53 68.7006 606.074 69.6176 606.387 70.0969C606.7 70.5971 606.951 71.0348 606.951 71.0973C606.951 71.1598 607.055 71.3266 607.16 71.4724C607.285 71.6183 608.434 73.3065 609.708 75.2655C611.003 77.2038 612.11 78.8502 612.194 78.9128C612.257 78.9753 612.674 79.538 613.113 80.1632C613.552 80.7885 614.053 81.4345 614.199 81.5804C614.345 81.7263 614.471 81.9139 614.471 81.9972C614.471 82.0806 614.763 82.4766 615.097 82.8726C615.933 83.8521 615.975 83.9146 616.56 84.7483C616.852 85.1443 617.186 85.5611 617.291 85.6861C617.416 85.832 617.729 86.228 618.022 86.6031C618.314 86.9783 618.711 87.4785 618.92 87.7286C619.129 87.9787 619.505 88.458 619.756 88.7706C620.006 89.1041 620.466 89.6251 620.758 89.9586C621.051 90.2712 621.51 90.8339 621.803 91.209C622.074 91.5633 622.617 92.2094 622.993 92.6262C623.39 93.0431 624.226 94.0018 624.873 94.7104C625.521 95.4398 626.294 96.2943 626.586 96.6277C627.067 97.1696 627.881 98.1283 628.905 99.3371C629.135 99.6289 629.531 100.129 629.782 100.442C630.033 100.775 630.492 101.338 630.806 101.692C631.119 102.067 631.391 102.422 631.391 102.484C631.391 102.567 631.662 102.943 632.017 103.318C632.351 103.714 632.644 104.089 632.644 104.151C632.644 104.214 632.832 104.506 633.082 104.777C633.584 105.36 635.359 108.007 635.359 108.195C635.359 108.257 635.464 108.424 635.589 108.57C636.717 109.862 641.104 118.303 641.542 120.053C641.605 120.345 641.751 120.658 641.856 120.72C641.96 120.783 642.044 121.033 642.044 121.304C642.044 121.554 642.127 121.846 642.232 121.95C642.441 122.179 643.13 124.326 643.506 125.91C643.631 126.472 643.84 127.139 643.924 127.368C644.028 127.598 644.153 128.056 644.195 128.411C644.258 128.744 644.446 129.828 644.613 130.807C645.804 137.351 645.616 143.875 644.007 150.815C643.589 152.565 642.065 157.317 641.814 157.567C641.709 157.692 641.626 157.901 641.626 158.068C641.626 158.922 637.135 167.592 636.028 168.863C635.923 168.967 635.714 169.301 635.568 169.593C635.422 169.864 635.234 170.135 635.171 170.197C635.088 170.26 634.691 170.822 634.273 171.448C633.855 172.073 633.333 172.823 633.082 173.094C632.832 173.365 632.644 173.657 632.644 173.719C632.644 173.782 632.372 174.136 632.059 174.511C631.746 174.866 631.286 175.428 631.035 175.762C630.764 176.074 630.283 176.679 629.928 177.075C629.594 177.471 628.947 178.221 628.529 178.721C627.025 180.472 619.233 188.121 618.941 188.121C618.878 188.121 618.628 188.329 618.356 188.579C617.876 189.038 617.082 189.725 615.515 190.976C615.118 191.288 614.763 191.622 614.721 191.705C614.68 191.809 614.554 191.872 614.429 191.872C614.325 191.872 614.116 191.997 613.949 192.122C613.531 192.539 612.967 192.977 612.173 193.539C611.776 193.81 611.4 194.102 611.338 194.164C611.15 194.394 603.734 199.291 603.358 199.437C602.711 199.667 602.961 200 603.776 200C604.82 200 609.311 199.458 611.546 199.041C615.996 198.249 622.513 196.332 625.667 194.894C626.294 194.602 626.879 194.373 626.941 194.373C627.234 194.373 634.022 190.955 634.879 190.371C635.359 190.059 635.798 189.788 635.882 189.788C635.944 189.788 636.696 189.308 637.553 188.746C638.409 188.162 639.203 187.704 639.328 187.704C639.433 187.704 639.537 187.641 639.537 187.537C639.537 187.454 640.059 187.058 640.686 186.662C641.313 186.266 641.835 185.87 641.835 185.765C641.835 185.682 641.918 185.62 642.044 185.62C642.232 185.62 642.775 185.224 643.401 184.619C643.569 184.494 643.736 184.369 643.798 184.369C643.882 184.369 644.195 184.14 644.509 183.869C644.822 183.577 645.302 183.16 645.595 182.91C647.412 181.41 648.352 180.555 649.71 179.221C650.545 178.388 651.297 177.7 651.402 177.7C651.485 177.7 651.694 177.492 651.861 177.262C652.028 177.012 652.697 176.283 653.324 175.616C654.66 174.219 656.164 172.552 656.812 171.719C657.063 171.406 657.439 170.927 657.647 170.676C657.856 170.426 658.232 169.947 658.483 169.634C658.734 169.322 659.131 168.822 659.36 168.551C659.611 168.28 659.799 167.988 659.799 167.925C659.799 167.863 660.008 167.571 660.279 167.279C660.53 166.988 661.616 165.445 662.682 163.841C663.726 162.236 664.687 160.819 664.812 160.673C664.917 160.527 665.021 160.36 665.021 160.298C665.021 160.235 665.272 159.797 665.585 159.297C665.898 158.818 666.442 157.901 666.755 157.276C667.089 156.65 667.486 155.983 667.632 155.817C667.904 155.462 671.664 147.855 672.249 146.438C672.457 145.917 672.792 145.188 673.001 144.813C673.209 144.437 673.377 144.041 673.377 143.937C673.377 143.833 673.606 143.229 673.899 142.603C674.191 141.978 674.421 141.395 674.421 141.332C674.421 141.249 674.546 140.894 674.713 140.54C674.881 140.165 675.236 139.269 675.486 138.519C675.737 137.768 676.029 137.08 676.134 136.976C676.217 136.851 676.301 136.559 676.301 136.309C676.301 136.038 676.405 135.767 676.51 135.705C676.635 135.642 676.719 135.351 676.719 135.08C676.719 134.809 676.802 134.517 676.928 134.454C677.032 134.392 677.136 134.1 677.136 133.829C677.136 133.558 677.22 133.267 677.345 133.204C677.471 133.141 677.554 132.891 677.554 132.662C677.554 132.454 677.638 132.099 677.742 131.891C677.847 131.703 678.139 130.786 678.411 129.869C678.661 128.952 679.037 127.639 679.267 126.973C679.476 126.285 679.643 125.576 679.643 125.368C679.643 125.159 679.748 124.93 679.852 124.868C679.977 124.805 680.061 124.513 680.061 124.242C680.061 123.971 680.144 123.68 680.27 123.617C680.374 123.555 680.479 123.304 680.479 123.075C680.479 122.867 680.562 122.512 680.688 122.304C680.792 122.117 681.126 121.2 681.44 120.282C681.753 119.365 682.108 118.323 682.275 117.99C682.421 117.636 682.755 116.76 683.006 116.01C683.257 115.26 683.549 114.551 683.612 114.447C683.695 114.322 683.842 114.009 683.925 113.718C684.009 113.426 684.301 112.738 684.573 112.175C684.844 111.592 685.074 111.071 685.074 110.966C685.074 110.57 689.106 102.338 690.672 99.5455C692.176 96.857 693.638 94.4603 694.056 93.9809C694.161 93.835 694.265 93.6475 694.265 93.5641C694.265 93.4807 694.495 93.1264 694.787 92.793C695.08 92.4595 695.31 92.1052 695.31 92.0219C695.31 91.9385 695.435 91.7301 695.581 91.5842C695.727 91.4383 696.187 90.7922 696.605 90.167C697.022 89.5417 697.545 88.7915 697.795 88.5205C698.046 88.2496 698.234 87.9578 698.234 87.8953C698.234 87.8328 698.505 87.4785 698.819 87.1033C699.132 86.749 699.613 86.1446 699.884 85.7903C700.177 85.4152 700.636 84.8525 700.929 84.5399C701.221 84.2064 701.681 83.6645 701.952 83.3102C702.913 82.0806 709.952 75.1613 710.266 75.1613C710.328 75.1613 710.579 74.9529 710.851 74.682C711.498 74.0568 712.208 73.494 712.334 73.494C712.438 73.494 713.107 72.973 713.587 72.4937C713.754 72.3686 713.963 72.2436 714.067 72.2436C714.193 72.2436 714.318 72.1602 714.36 72.0768C714.443 71.8268 717.598 69.7426 717.869 69.7426C717.974 69.7426 718.078 69.6384 718.078 69.5342C718.078 69.4092 718.203 69.3258 718.37 69.3258C718.538 69.3258 718.705 69.2633 718.746 69.1591C718.851 68.9298 723.76 66.3872 725.807 65.491C728.877 64.1572 733.744 62.6566 737.504 61.9063C742.267 60.9476 748.91 60.5308 752.44 60.9893C753.233 61.0935 753.944 61.1352 753.985 61.0727C754.299 60.7601 749.474 59.4679 746.257 59.0094C743.458 58.6134 737.108 58.6134 733.849 59.0094C724.825 60.0932 716.073 62.8442 706.276 67.6794C704.668 68.4713 702.934 69.3675 702.412 69.6801C701.889 69.9719 701.158 70.3887 700.803 70.5971C699.069 71.5975 698.589 71.8476 697.879 72.2644C697.44 72.5145 696.834 72.8896 696.521 73.0981C696.229 73.3273 695.915 73.494 695.853 73.494C695.769 73.494 695.017 73.9525 694.161 74.5361C693.304 75.0988 692.51 75.5782 692.385 75.5782C692.281 75.5782 692.176 75.6615 692.176 75.7449C692.176 75.8491 691.926 76.0575 691.612 76.2242C691.278 76.391 690.986 76.5785 690.923 76.6411C690.86 76.7036 690.066 77.2663 689.147 77.8707C688.228 78.4751 687.455 79.0586 687.414 79.1628C687.372 79.2462 687.247 79.3296 687.121 79.3296C687.017 79.3296 686.808 79.4546 686.641 79.5797C686.014 80.1841 685.471 80.58 685.283 80.58C685.158 80.58 685.074 80.6634 685.074 80.7468C685.074 80.8301 684.823 81.0594 684.51 81.247C684.176 81.4345 683.716 81.768 683.466 81.9764C682.379 82.8934 682.129 83.081 682.024 83.081C681.962 83.081 681.795 83.206 681.648 83.3311C681.502 83.477 681.064 83.8313 680.688 84.123C680.312 84.4148 679.852 84.79 679.643 84.9567C679.434 85.1234 678.975 85.4986 678.599 85.7903C677.909 86.3322 677.471 86.6865 676.468 87.5827C676.155 87.8536 675.841 88.0829 675.779 88.0829C675.674 88.0829 674.755 88.8748 673.669 89.896C673.293 90.2712 672.917 90.5838 672.854 90.5838C672.792 90.5838 672.457 90.8547 672.081 91.209C671.726 91.5425 670.933 92.2719 670.306 92.8138C668.342 94.5436 666.086 96.6486 663.705 98.9828C661.742 100.942 661.345 101.234 660.906 101.109C660.363 100.984 653.47 96.4819 653.365 96.1692C653.324 96.0859 653.156 96.0025 652.989 96.0025C652.822 96.0025 652.697 95.94 652.697 95.8358C652.697 95.7524 652.175 95.3564 651.548 94.9605C650.921 94.5645 650.399 94.1685 650.399 94.0643C650.399 93.9809 650.253 93.9184 650.086 93.9184C649.919 93.9184 649.772 93.835 649.772 93.7517C649.772 93.6683 649.522 93.439 649.208 93.2515C648.874 93.0639 648.415 92.7304 648.164 92.522C647.078 91.605 646.827 91.4175 646.744 91.4175C646.66 91.4175 646.472 91.2716 645.386 90.3754C645.198 90.2087 644.717 89.8335 644.341 89.5417C643.965 89.25 643.527 88.8957 643.381 88.7498C643.234 88.6247 643.067 88.4997 643.005 88.4997C642.879 88.4997 641.96 87.7286 641.292 87.0825C641.145 86.9574 640.978 86.8324 640.916 86.8324C640.79 86.8324 639.997 86.1655 639.015 85.2068C638.743 84.9567 638.451 84.7483 638.388 84.7483C638.326 84.7483 638.054 84.5399 637.782 84.2898C637.532 84.0188 636.822 83.3936 636.216 82.8726C633.333 80.4133 625.312 72.577 622.826 69.7843C620.758 67.4709 619.463 65.9704 618.711 65.0117C618.461 64.6991 618.064 64.1989 617.834 63.9071C617.124 63.0526 617.082 62.9901 616.56 62.2398C616.267 61.8438 615.829 61.2811 615.578 60.9893C615.306 60.7184 615.097 60.4058 615.097 60.3224C615.097 60.2599 614.951 60.0306 614.763 59.8639C614.45 59.5305 611.358 54.9454 610.606 53.6741C609.562 51.8817 608.162 49.3391 607.766 48.4846C607.536 47.9636 606.972 46.7965 606.554 45.8795C606.115 44.9625 605.551 43.6495 605.301 42.9617C605.029 42.274 604.737 41.5237 604.653 41.2944C604.549 41.0652 604.361 40.5025 604.215 40.0439C604.089 39.5854 603.901 39.0227 603.797 38.7935C603.463 37.9807 602.564 33.9583 602.23 31.8117C601.791 29.0815 601.75 22.6832 602.126 20.0364C602.543 17.1603 604.089 11.4915 604.653 10.6579C604.737 10.5328 604.925 10.0952 605.071 9.63667C605.405 8.61545 607.348 4.8432 607.598 4.75983C607.703 4.71815 607.786 4.59311 607.786 4.48889C607.786 4.30133 609.165 2.05048 609.604 1.48776C610.022 0.966736 610.523 0.0914001 610.46 0.00804138C610.418 -0.0336456 610.147 0.0914001 609.854 0.278976Z" fill="#222222"/>
<path d="M657.815 43.3575C656.311 43.7118 654.807 44.212 653.532 44.7956C650.838 46.0252 647.475 48.943 645.449 51.7774C644.843 52.611 642.879 56.5708 642.879 56.946C642.879 57.1127 642.796 57.4045 642.691 57.6129C641.772 59.2802 641.313 65.6784 641.918 68.5545C642.733 72.4935 644.55 75.9531 647.203 78.6416C650.462 81.9346 654.577 83.7061 658.943 83.7061C660.864 83.7061 663.141 83.3518 664.499 82.8516C665.523 82.4764 668.677 80.9133 668.739 80.7466C668.781 80.6424 668.948 80.5799 669.115 80.5799C669.282 80.5799 669.408 80.4757 669.408 80.3715C669.408 80.2464 669.512 80.1631 669.617 80.1631C669.867 80.1631 670.766 79.4128 672.207 77.9539C673.565 76.5992 673.962 76.1199 674.776 74.8486C675.152 74.265 675.528 73.7023 675.633 73.5981C675.862 73.3063 676.928 71.0971 676.928 70.9096C676.928 70.8054 677.053 70.4511 677.22 70.0968C677.868 68.6379 678.411 65.8035 678.536 63.3651C678.682 60.5723 678.285 57.5295 677.533 55.5496C677.304 54.9244 677.011 54.1533 676.886 53.799C676.552 52.9445 676.343 52.5693 675.236 50.8812C672.917 47.3799 669.199 44.6497 665.335 43.5868C663.601 43.1283 659.402 42.9824 657.815 43.3575Z" fill="#222222"/>
<path d="M391.28 212C390.62 212 390.01 211.84 389.45 211.52C388.91 211.2 388.48 210.77 388.16 210.23C387.84 209.67 387.68 209.06 387.68 208.4V194C387.68 193.34 387.84 192.74 388.16 192.2C388.48 191.64 388.91 191.2 389.45 190.88C390.01 190.56 390.62 190.4 391.28 190.4H409.22V192.83H391.28C390.96 192.83 390.68 192.95 390.44 193.19C390.22 193.41 390.11 193.68 390.11 194V208.4C390.11 208.72 390.22 209 390.44 209.24C390.68 209.46 390.96 209.57 391.28 209.57H409.22V212H391.28ZM419.788 212C419.128 212 418.518 211.84 417.958 211.52C417.418 211.2 416.988 210.77 416.668 210.23C416.348 209.67 416.188 209.06 416.188 208.4V194C416.188 193.34 416.348 192.74 416.668 192.2C416.988 191.64 417.418 191.2 417.958 190.88C418.518 190.56 419.128 190.4 419.788 190.4H434.188C434.848 190.4 435.448 190.56 435.988 190.88C436.548 191.2 436.988 191.64 437.308 192.2C437.628 192.74 437.788 193.34 437.788 194V208.4C437.788 209.06 437.628 209.67 437.308 210.23C436.988 210.77 436.548 211.2 435.988 211.52C435.448 211.84 434.848 212 434.188 212H419.788ZM419.788 209.57H434.188C434.508 209.57 434.778 209.46 434.998 209.24C435.238 209 435.358 208.72 435.358 208.4V194C435.358 193.68 435.238 193.41 434.998 193.19C434.778 192.95 434.508 192.83 434.188 192.83H419.788C419.468 192.83 419.188 192.95 418.948 193.19C418.728 193.41 418.618 193.68 418.618 194V208.4C418.618 208.72 418.728 209 418.948 209.24C419.188 209.46 419.468 209.57 419.788 209.57ZM444.992 212V190.4H448.322L457.292 201.08L466.262 190.4H469.592V212H467.162V193.16L457.292 204.89L447.422 193.16V212H444.992ZM476.724 212V190.43H494.724C495.384 190.43 495.984 190.6 496.524 190.94C497.084 191.26 497.524 191.69 497.844 192.23C498.164 192.77 498.324 193.37 498.324 194.03V200.36C498.324 201.02 498.164 201.62 497.844 202.16C497.524 202.7 497.084 203.14 496.524 203.48C495.984 203.8 495.384 203.96 494.724 203.96H479.154V212H476.724ZM480.324 201.5H494.724C495.044 201.5 495.314 201.39 495.534 201.17C495.774 200.95 495.894 200.68 495.894 200.36V194.03C495.894 193.71 495.774 193.44 495.534 193.22C495.314 192.98 495.044 192.86 494.724 192.86H480.324C480.004 192.86 479.724 192.98 479.484 193.22C479.264 193.44 479.154 193.71 479.154 194.03V200.36C479.154 200.68 479.264 200.95 479.484 201.17C479.724 201.39 480.004 201.5 480.324 201.5ZM504.707 212V194C504.707 193.34 504.867 192.74 505.187 192.2C505.507 191.64 505.937 191.2 506.477 190.88C507.037 190.56 507.647 190.4 508.307 190.4H522.707C523.367 190.4 523.967 190.56 524.507 190.88C525.067 191.2 525.507 191.64 525.827 192.2C526.147 192.74 526.307 193.34 526.307 194V212H523.877V204.11H507.137V212H504.707ZM507.137 201.68H523.877V194C523.877 193.68 523.757 193.41 523.517 193.19C523.297 192.95 523.027 192.83 522.707 192.83H508.307C507.987 192.83 507.707 192.95 507.467 193.19C507.247 193.41 507.137 193.68 507.137 194V201.68ZM533.625 212V190.4H536.955L552.795 209.24V190.4H555.225V212H551.895L536.055 193.16V212H533.625ZM571.696 212V203.87L561.766 190.4H564.556L572.926 200.96L581.206 190.4H584.056L574.126 203.87V212H571.696Z" fill="#222222"/>
<line x1="152" y1="198.5" x2="367" y2="198.5" stroke="#222222" stroke-width="3"/>
<path d="M0.2 143.6C0.333333 131.2 4.66667 118.467 13.2 105.4C21.8667 92.2 32.6 80.6667 45.4 70.8C58.2 60.8 72.4 52.6667 88 46.4C103.6 40 118.267 36.8 132 36.8C139.867 36.8 147.133 38.4667 153.8 41.8C160.6 45 164 49.9333 164 56.6C164 63.1333 160.2 70.2667 152.6 78C145.133 85.6 136.133 92.1333 125.6 97.6C115.2 102.933 106.067 105.6 98.2 105.6C94.6 105.6 90.8667 104.6 87 102.6C83.1333 100.6 81.2 97.8 81.2 94.2C81.2 92.2 82.8 90.4667 86 89C97.3333 84.4667 105.867 80.0667 111.6 75.8C112.8 74.4667 113.667 73.8 114.2 73.8C114.867 73.8 115.2 74.3333 115.2 75.4C115.2 77.2667 112.933 79.4667 108.4 82C105.2 84.4 103.6 85.7333 103.6 86C103.6 86.2667 103.667 86.4 103.8 86.4C106.467 86.4 114.6 81.2667 128.2 71C141.8 60.7333 148.6 54.1333 148.6 51.2C148.6 49.3333 146.8 48.4 143.2 48.4C130.4 48.4 117.4 51.4667 104.2 57.6C91 63.6 79.2667 71.2 69 80.4C58.8667 89.4667 49.6667 99.1333 41.4 109.4C33.1333 119.533 26.8 129 22.4 137.8C18 146.467 15.8 153.2 15.8 158C15.8 160.933 17.2 162.4 20 162.4C22.4 162.4 27.2 161.333 34.4 159.2C41.6 157.067 52 152.8 65.6 146.4C79.3333 140 92.5333 132.333 105.2 123.4C106.133 122.6 106.733 122.2 107 122.2C107.4 122.2 107.6 122.467 107.6 123C107.6 123.533 106.4 125.8 104 129.8C101.733 133.8 98.2 138.667 93.4 144.4C88.7333 150.133 83.4 155.733 77.4 161.2C71.4 166.533 64.1333 171.133 55.6 175C47.2 178.867 39.4 180.8 32.2 180.8C25.1333 180.8 19.5333 179.533 15.4 177C11.4 174.467 8.46667 171.333 6.6 167.6C2.73333 160.133 0.666667 153.4 0.4 147.4L0.2 143.6ZM177.148 113.6C179.148 115.067 180.148 116.467 180.148 117.8C180.148 119 179.548 120.133 178.348 121.2C177.282 122.267 171.082 130.467 159.748 145.8C148.415 161 140.748 171.467 136.748 177.2C132.882 182.933 130.148 187.067 128.548 189.6C126.948 192.267 123.615 196.933 118.548 203.6C113.615 210.267 108.615 216.267 103.548 221.6C98.4818 227.067 92.4151 232.267 85.3484 237.2C78.1484 242.267 71.2818 245.467 64.7484 246.8C61.9484 246.8 59.1484 246.2 56.3484 245C51.0151 242.733 48.3484 238.533 48.3484 232.4C48.3484 224.667 55.6151 215.533 70.1484 205C84.5484 194.6 95.2818 189.4 102.348 189.4C103.415 189.4 103.948 189.6 103.948 190C103.948 190.4 103.282 191.067 101.948 192C90.4818 199.867 80.0818 208.333 70.7484 217.4C61.2818 226.6 56.5484 233.133 56.5484 237C56.5484 237.533 56.9484 237.8 57.7484 237.8C58.5484 237.8 60.2818 236.933 62.9484 235.2C69.3484 230.667 78.4151 222.4 90.1484 210.4C103.082 196 111.015 186.8 113.948 182.8C119.148 175.733 125.348 168.4 132.548 160.8L136.548 156.6C136.682 156.333 136.882 156.067 137.148 155.8C137.415 155.533 137.748 155.067 138.148 154.4C139.215 152.667 139.682 151.8 139.548 151.8C139.148 151.8 138.282 152.467 136.948 153.8C135.615 155.133 133.682 157 131.148 159.4C128.748 161.667 124.615 164.8 118.748 168.8C112.882 172.667 108.148 174.6 104.548 174.6C100.948 174.6 98.1484 173.4 96.1484 171C94.1484 168.6 93.1484 166.067 93.1484 163.4C93.1484 160.6 94.8818 156.467 98.3484 151C101.815 145.533 106.348 139.6 111.948 133.2C117.548 126.8 124.748 120.867 133.548 115.4C142.482 109.933 151.615 106.667 160.948 105.6C166.415 106.8 169.948 108.733 171.548 111.4C171.815 111.267 172.348 111.2 173.148 111.2C173.948 111.2 175.282 112 177.148 113.6ZM115.148 155.8C118.615 155.533 124.615 152.333 133.148 146.2C141.815 140.067 149.615 133.933 156.548 127.8C163.615 121.667 167.148 118.133 167.148 117.2C167.148 116.933 166.882 116.8 166.348 116.8C159.415 118.267 151.682 121.933 143.148 127.8C134.615 133.667 127.682 139.333 122.348 144.8C117.015 150.267 114.348 153.733 114.348 155.2C114.348 155.6 114.615 155.8 115.148 155.8ZM182.011 155.2C183.611 155.2 188.478 151.933 196.611 145.4C204.878 138.867 212.744 132.333 220.211 125.8L231.211 116C231.744 115.467 232.011 115.133 232.011 115C232.011 114.733 231.811 114.6 231.411 114.6C226.344 114.6 219.744 117.533 211.611 123.4C203.478 129.133 196.411 135.267 190.411 141.8C184.544 148.2 181.611 152.533 181.611 154.8C181.611 155.067 181.744 155.2 182.011 155.2ZM216.611 158.2C216.611 158.6 217.011 158.8 217.811 158.8C218.744 158.8 222.678 156.8 229.611 152.8C247.744 142.533 269.078 128.8 293.611 111.6C294.811 112.533 295.411 113.667 295.411 115C295.411 116.333 294.744 117.6 293.411 118.8C292.078 120 290.144 121.733 287.611 124C285.211 126.267 280.544 130.333 273.611 136.2C266.678 142.067 260.211 147.4 254.211 152.2C238.478 164.867 226.878 172.333 219.411 174.6C217.011 175.267 214.411 175.6 211.611 175.6C208.944 175.2 206.478 174.2 204.211 172.6C202.078 171 201.011 169.133 201.011 167C201.011 164.867 201.478 161.733 202.411 157.6C203.478 153.333 204.011 151.067 204.011 150.8C204.011 150.4 203.878 150.2 203.611 150.2C203.478 150.2 203.144 150.467 202.611 151C200.878 152.867 198.678 155.2 196.011 158C193.344 160.667 188.744 164.333 182.211 169C175.811 173.533 170.611 175.8 166.611 175.8C165.944 175.667 165.144 175.4 164.211 175C163.144 174.733 161.811 173.667 160.211 171.8C158.611 169.933 157.811 167.267 157.811 163.8C157.811 160.333 160.411 155.067 165.611 148C170.811 140.8 177.144 133.8 184.611 127C192.078 120.067 200.278 114.067 209.211 109C218.144 103.933 225.944 101.4 232.611 101.4C235.011 101.4 237.011 103.2 238.611 106.8C238.478 105.867 242.811 99.8667 251.611 88.8C260.411 77.6 270.811 66.4 282.811 55.2C294.944 43.8667 304.344 38.2 311.011 38.2C313.278 38.2 314.411 39.2667 314.411 41.4C314.411 44.7333 312.144 49.2667 307.611 55C303.211 60.7333 298.411 66.0667 293.211 71C288.144 75.9333 281.544 82.1333 273.411 89.6C254.611 106.667 240.411 121.2 230.811 133.2C221.344 145.2 216.611 153.533 216.611 158.2ZM291.264 163.6L292.864 150.8C292.864 150.4 292.731 150.2 292.464 150.2C292.331 150.2 291.997 150.467 291.464 151C289.731 152.867 287.531 155.2 284.864 158C282.197 160.667 277.597 164.333 271.064 169C264.664 173.533 259.464 175.8 255.464 175.8C254.797 175.667 253.997 175.4 253.064 175C251.997 174.733 250.664 173.667 249.064 171.8C247.464 169.933 246.664 167.267 246.664 163.8C246.664 160.333 249.331 155.067 254.664 148C259.864 140.8 266.131 133.8 273.464 127C280.797 120.067 288.931 114.067 297.864 109C306.931 103.933 314.797 101.4 321.464 101.4C323.997 101.533 325.997 103.333 327.464 106.8C328.797 105.467 329.997 104.8 331.064 104.8C332.131 104.8 333.397 105.6 334.864 107.2C335.664 107.333 336.464 107.8 337.264 108.6C338.064 109.267 338.464 110.267 338.464 111.6C338.464 112.933 337.531 114.4 335.664 116C332.864 119.467 329.597 123.4 325.864 127.8C322.131 132.2 319.464 135.4 317.864 137.4C316.264 139.267 314.597 141.4 312.864 143.8C309.931 147.933 308.331 151.267 308.064 153.8C321.664 147.267 343.064 133.2 372.264 111.6C373.464 112.533 374.064 113.667 374.064 115C374.064 116.333 373.531 117.467 372.464 118.4C371.397 119.333 370.064 120.467 368.464 121.8C366.997 123.133 363.997 125.733 359.464 129.6C354.931 133.467 350.531 137.2 346.264 140.8C342.131 144.267 337.331 148.2 331.864 152.6C326.531 156.867 321.731 160.533 317.464 163.6C307.197 170.933 300.797 174.6 298.264 174.6C295.731 174.6 293.931 173.8 292.864 172.2C291.797 170.6 291.264 167.733 291.264 163.6ZM270.864 155.2C272.464 155.2 277.331 151.933 285.464 145.4C293.731 138.867 301.531 132.333 308.864 125.8L320.064 116C320.597 115.467 320.864 115.133 320.864 115C320.864 114.733 320.664 114.6 320.264 114.6C315.197 114.6 308.597 117.533 300.464 123.4C292.331 129.133 285.264 135.267 279.264 141.8C273.397 148.2 270.464 152.533 270.464 154.8C270.464 155.067 270.597 155.2 270.864 155.2ZM377.394 105.8C378.46 105.8 380.194 106.333 382.594 107.4C385.127 108.467 386.394 109.667 386.394 111C386.394 111.933 386.06 112.867 385.394 113.8L370.394 134.6C368.66 136.733 367.794 137.933 367.794 138.2C367.794 138.467 367.86 138.6 367.994 138.6L368.994 138C384.46 127.2 397.194 117.733 407.194 109.6C409.06 108.267 410.594 107.6 411.794 107.6C413.127 107.6 413.994 107.733 414.394 108L419.994 109.6C421.327 110.267 421.994 111.133 421.994 112.2C421.994 113.267 421.727 114.133 421.194 114.8C418.66 117.6 415.727 120.8 412.394 124.4C409.194 127.867 406.794 130.533 405.194 132.4C403.594 134.133 401.794 136.133 399.794 138.4C397.794 140.667 396.327 142.4 395.394 143.6C394.594 144.8 393.66 146.2 392.594 147.8C391.527 149.267 390.794 150.533 390.394 151.6C389.594 154.667 389.194 157.333 389.194 159.6C389.194 160.8 389.927 161.4 391.394 161.4C392.994 161.4 395.794 160.467 399.794 158.6C403.927 156.733 408.794 153.867 414.394 150C420.127 146.133 427.66 140.667 436.994 133.6C446.46 126.4 454.727 120.333 461.794 115.4C462.994 116.333 463.594 117.467 463.594 118.8C463.594 120.133 462.994 121.333 461.794 122.4C457.527 126.533 452.127 131.733 445.594 138C439.06 144.133 429.06 152.4 415.594 162.8C402.26 173.2 392.927 178.4 387.594 178.4C377.327 178.4 372.194 172.933 372.194 162C372.194 157.867 373.794 153.533 376.994 149L385.594 137.2C386.394 136 386.794 135.333 386.794 135.2C386.794 134.933 386.394 135.133 385.594 135.8C362.394 155.133 347.594 166.467 341.194 169.8C340.127 170.467 338.794 170.8 337.194 170.8C332.794 170.8 330.594 168.8 330.594 164.8C330.594 163.467 330.927 162.267 331.594 161.2C341.46 152.133 348.394 144.733 352.394 139C355.594 135.8 358.927 131.333 362.394 125.6C365.994 119.867 368.994 115.133 371.394 111.4C373.927 107.667 375.927 105.8 377.394 105.8ZM509.586 110.2C509.453 115 506.453 119.733 500.586 124.4C494.853 129.067 487.853 131.4 479.586 131.4C476.119 131.4 474.386 130.4 474.386 128.4C474.386 127.6 474.986 127 476.186 126.6C484.186 121.933 489.253 118.133 491.386 115.2C491.653 114.667 491.786 114.067 491.786 113.4C491.786 112.733 491.453 112.4 490.786 112.4C479.453 114 468.653 120.2 458.386 131C448.119 141.8 442.986 150.2 442.986 156.2C442.986 159 444.053 160.4 446.186 160.4C456.053 160.4 466.453 157.533 477.386 151.8C488.319 146.067 504.586 135.533 526.186 120.2C527.653 119.133 529.853 117.533 532.786 115.4C535.853 113.267 537.653 112 538.186 111.6C539.386 112.533 539.986 113.667 539.986 115C539.986 116.333 539.386 117.533 538.186 118.6C531.519 125.267 522.853 132.733 512.186 141C501.653 149.267 489.519 157.133 475.786 164.6C462.053 171.933 450.853 175.6 442.186 175.6C431.919 175.6 426.786 170.133 426.786 159.2C426.786 151.6 429.319 144.2 434.386 137C439.453 129.667 445.653 123.533 452.986 118.6C460.319 113.667 467.986 109.733 475.986 106.8C483.986 103.733 490.386 102.2 495.186 102.2C500.119 102.2 503.653 102.867 505.786 104.2C507.919 105.533 509.053 106.867 509.186 108.2L509.586 110.2ZM563.758 111.6C560.291 111.6 554.424 115.2 546.158 122.4C537.891 129.467 533.758 133.8 533.758 135.4C533.758 135.667 533.958 135.8 534.358 135.8C537.291 135.8 543.091 132.533 551.758 126C560.558 119.467 564.958 115 564.958 112.6C564.958 111.933 564.558 111.6 563.758 111.6ZM521.158 175.6C510.891 175.6 505.758 169.333 505.758 156.8C505.758 148.933 509.158 140.6 515.958 131.8C522.891 122.867 531.024 115.6 540.358 110C549.691 104.267 557.958 101.4 565.158 101.4C568.358 101.4 571.291 102.667 573.958 105.2C576.758 107.733 578.158 110.2 578.158 112.6C578.158 117 575.024 122 568.758 127.6C562.491 133.067 555.891 137.533 548.958 141C542.158 144.333 537.624 146 535.358 146C533.224 146 531.624 145 530.558 143C530.024 142.6 529.291 142.4 528.358 142.4C527.424 142.4 525.891 144.2 523.758 147.8C521.624 151.267 520.558 154.133 520.558 156.4C520.558 158.533 521.358 159.867 522.958 160.4C533.091 160.4 544.091 157.467 555.958 151.6C567.824 145.6 584.224 135.133 605.158 120.2C606.624 119.133 608.824 117.533 611.758 115.4C614.824 113.267 616.624 112 617.158 111.6C618.358 112.533 618.958 113.667 618.958 115C618.958 116.333 618.358 117.533 617.158 118.6C610.491 125.267 601.824 132.733 591.158 141C580.624 149.267 568.491 157.133 554.758 164.6C541.024 171.933 529.824 175.6 521.158 175.6Z" fill="white"/>
</svg>
